<?xml version="1.0" encoding="UTF-8"?>
<svg xmlns="http://www.w3.org/2000/svg" id="b" width="278.21" height="63" viewBox="0 0 278.21 63">
  <g id="c">
    <g>
      <g>
        <path d="m32.35,0c.32.02.65.04.97.06,2,.11,3.97.41,5.91.9,9.08,2.33,16.53,8.41,20.63,16.83,1.29,2.64,2.17,5.41,2.67,8.31.24,1.42.4,2.85.44,4.28,0,.09.02.17.03.26v1.7c0,.07-.02.13-.03.2-.08.96-.13,1.92-.23,2.87-.18,1.65-.51,3.26-.99,4.85-2.43,8.06-7.28,14.24-14.53,18.52-2.99,1.77-6.22,2.95-9.62,3.62-2.22.44-4.47.65-6.73.58-7.9-.22-14.81-2.96-20.65-8.28-4.31-3.93-7.28-8.72-8.94-14.31-.51-1.71-.86-3.46-1.06-5.23-.2-1.73-.27-3.46-.18-5.2.39-7.13,2.87-13.45,7.5-18.89,3.84-4.52,8.61-7.68,14.24-9.53,1.81-.59,3.65-1.02,5.54-1.25,1.04-.12,2.08-.18,3.12-.26.07,0,.13-.02.2-.03h1.7Zm29.93,31.5C62.28,14.54,48.52.75,31.61.71,14.57.67.76,14.45.71,31.41c-.05,17.02,13.72,30.81,30.67,30.87,17.06.06,30.91-13.76,30.9-30.78Z" fill="#fff"></path>
        <path d="m54.49,31.42c0,12.73-10.35,23.08-23.08,23.08-12.75,0-23.05-10.29-23.07-23.08-.02-12.8,10.39-23.13,23.16-23.08,12.64.04,22.98,10.29,22.99,23.08m-23.09,22.36c12.37,0,22.36-10,22.37-22.39.01-12.31-10.02-22.35-22.35-22.35-12.36,0-22.38,9.99-22.38,22.35,0,12.38,10,22.38,22.36,22.39Z" fill="#fff"></path>
        <path d="m20.41,47.08c.11-.32.21-.63.31-.95.86-2.71,1.72-5.42,2.58-8.14.1-.33.1-.32.44-.36.71-.06,1.39-.27,2.06-.48.8-.24,1.59-.5,2.39-.72.31-.09.65-.09.98-.13.07,0,.14-.02.19-.05.4-.27.75-.59,1.06-.96.33-.4.42-.84.38-1.35-.13-1.51-.91-2.59-2.16-3.38-.83-.52-1.74-.89-2.65-1.26-.98-.39-1.98-.76-2.91-1.26-.82-.44-1.57-.97-2.16-1.7-.65-.81-.99-1.75-1.1-2.78-.02-.15-.03-.3-.04-.46.59,1.36,1.75,2.11,2.92,2.86.02.01.04.01.08.03-.19-.35-.26-.69-.26-1.08.02.03.04.03.05.05.4.87,1.07,1.47,1.9,1.91.83.44,1.72.68,2.63.88.5.11.99.23,1.49.35.12.03.24.08.35.13.17.07.27.19.28.4,0,.15.05.31.09.46.03.12.07.23.22.26.04,0,.08.08.09.13.02.16.02.31.03.47.01.26.08.51.25.72.08.1.16.15.29.09.16-.07.26,0,.36.12.25.29.52.58.79.88.05-.05.09-.08.13-.11.25-.27.51-.54.75-.83.07-.08.13-.1.22-.04.19.11.2.11.3-.1.16-.32.27-.66.26-1.03,0-.09-.04-.21,0-.28.04-.06.17-.06.25-.1.05-.03.1-.08.11-.13.01-.11.01-.23,0-.34-.05-.34,0-.46.33-.58.29-.11.6-.19.91-.26.89-.2,1.79-.37,2.64-.7.57-.21,1.11-.48,1.59-.85.48-.37.86-.82,1.13-1.38.01-.03.03-.06.04-.08,0,0,0,0,.03,0,0,.37-.06.72-.26,1.06.04,0,.06-.01.07-.02.78-.47,1.52-1,2.15-1.66.33-.35.61-.73.77-1.2-.01.62-.12,1.23-.32,1.81-.36,1.02-1.02,1.82-1.89,2.46-.84.62-1.77,1.04-2.72,1.43-1.01.42-2.03.83-3.03,1.27-.7.31-1.34.73-1.88,1.27-.86.86-1.21,1.92-1.17,3.12,0,.32.16.59.36.84.34.41.77.71,1.23.96.04.02.08.04.12.03.97-.01,1.86.32,2.77.6.7.22,1.4.44,2.1.64.23.07.48.07.72.09.09,0,.12.04.15.12.97,3.05,1.93,6.1,2.9,9.16.02.05.03.1.05.17-3.31.14-6.61.29-9.9.43-.06-.1-.1-.2-.16-.29-.35-.58-1.15-.57-1.55-.01,0,.01-.01.03-.02.04q-.12.26-.4.25c-2.07-.09-4.14-.18-6.21-.26-1.12-.05-2.24-.1-3.37-.15-.03,0-.05,0-.09-.01m10.31-.36c.02-.56.04-1.11.06-1.66.04-1.02.07-2.05.11-3.07.05-1.36.1-2.72.14-4.08,0-.06,0-.13-.03-.18-.28-.52-.67-.91-1.24-1.1-.49-.17-.99-.11-1.47.02-.9.26-1.8.54-2.69.81-.56.17-1.12.36-1.71.39-.14,0-.19.05-.23.19-.83,2.84-1.67,5.67-2.5,8.5-.01.05-.03.1-.04.16.34.04.66-.02.97-.1.95-.26,1.89-.54,2.84-.82,1.02-.3,2.02-.63,3.09-.72.91-.08,1.68.2,2.26.93.17.22.31.47.47.73Zm10.79.01c-.03-.11-.04-.17-.06-.22-.11-.36-.23-.72-.34-1.08-.75-2.45-1.5-4.9-2.24-7.35-.03-.08-.06-.12-.15-.14-.53-.13-1.07-.26-1.6-.41-1.01-.29-2.01-.59-3.02-.88-.66-.19-1.3-.19-1.84.29-.25.22-.46.47-.67.73-.06.07-.09.19-.09.29.02,1.14.06,2.28.09,3.41.05,1.75.09,3.49.13,5.24,0,.04,0,.07.02.15.05-.09.08-.15.1-.2.39-.73.98-1.2,1.79-1.4.54-.13,1.09-.13,1.62,0,.76.17,1.51.38,2.26.6,1,.3,1.97.68,3,.87.32.06.64.08.99.12Z" fill="#fff"></path>
        <path d="m29.44,16.84c-.76.23-1.49.46-2.25.69.52-.53,1.01-1.03,1.53-1.56-.95-.27-1.84-.53-2.73-.79,0-.02,0-.04,0-.06.93-.23,1.86-.46,2.82-.7-.54-.47-1.06-.92-1.58-1.37.01-.02.02-.04.03-.06.72.17,1.44.35,2.2.53-.23-.76-.45-1.49-.69-2.24.52.51,1.01.99,1.53,1.5.27-.93.52-1.82.77-2.7.02,0,.04,0,.06,0,.23.93.45,1.85.69,2.81.47-.54.93-1.05,1.38-1.56.02.01.04.02.05.03-.17.73-.35,1.45-.53,2.22.76-.24,1.49-.46,2.21-.68.01.01.02.03.04.04-.13.17-.3.31-.45.47-.16.17-.33.33-.49.49-.16.16-.32.32-.5.5.92.26,1.8.51,2.68.77,0,.02,0,.04,0,.06-.91.22-1.82.44-2.76.67.52.47,1.01.93,1.51,1.38,0,.02-.02.04-.02.06-.73-.17-1.46-.35-2.22-.53.23.76.46,1.48.68,2.21-.02.01-.04.03-.05.04-.48-.48-.96-.96-1.47-1.46-.27.93-.53,1.82-.79,2.72-.02,0-.04,0-.06,0-.23-.93-.46-1.86-.7-2.82-.47.54-.92,1.06-1.37,1.58-.02,0-.04-.02-.06-.03.17-.72.35-1.45.53-2.2m3.33-1.65c0-.96-.79-1.74-1.75-1.74-.96,0-1.73.78-1.73,1.74,0,.96.78,1.74,1.74,1.74.96,0,1.74-.78,1.74-1.75Z" fill="#fff"></path>
        <path d="m15.88,18.48c.15,1.68.97,3.07,1.99,4.35.43.54.89,1.05,1.34,1.57.25.29.47.6.63.95.6,1.32,1.61,2.27,2.84,3,1,.59,2.09,1,3.18,1.4.81.3,1.63.58,2.39.99.39.21.75.46,1.05.79.29.32.46.7.51,1.13-.2-.49-.59-.79-1.02-1.05-.81-.5-1.7-.83-2.59-1.18-1.43-.57-2.88-1.12-4.29-1.74-1.33-.58-2.55-1.35-3.63-2.33-1.04-.95-1.86-2.05-2.27-3.42-.23-.76-.3-1.54-.26-2.33.04-.71.08-1.41.12-2.12" fill="#fff"></path>
        <path d="m46.56,18.56c.01.18.03.36.04.54.03.71.08,1.42.08,2.12,0,1.52-.56,2.86-1.5,4.04-.91,1.14-2.05,1.99-3.29,2.72-1.3.75-2.69,1.3-4.08,1.85-1.09.43-2.18.85-3.25,1.3-.44.19-.85.46-1.25.72-.29.19-.52.44-.69.76.05-.17.09-.34.16-.5.19-.44.51-.77.89-1.04.64-.46,1.38-.75,2.11-1.04,1.09-.43,2.18-.83,3.25-1.3.99-.43,1.87-1.03,2.6-1.84.44-.49.78-1.05,1.04-1.66.09-.22.22-.43.37-.62.54-.65,1.1-1.28,1.63-1.94.63-.79,1.17-1.64,1.52-2.6.18-.49.3-.99.36-1.52" fill="#fff"></path>
        <path d="m32.63,28.94c.04.47.11.94-.14,1.4-.08-.22-.15-.42-.23-.66-.04.08-.07.13-.09.17-.15.3-.3.6-.46.9-.06.11-.13.22-.2.32-.13.17-.19.18-.34.03-.08-.08-.15-.16-.21-.25-.28-.41-.56-.82-.55-1.35-.21.25-.27.56-.31.88-.02,0-.03,0-.05,0-.04-.2-.11-.4-.11-.6,0-.24.05-.49.1-.73.03-.15,0-.2-.15-.16-.09.02-.17.05-.3.09.04-.1.06-.18.1-.24.14-.22.29-.43.43-.66.12-.21.25-.42.34-.64.13-.33.03-.65-.22-.86-.24-.2-.61-.23-.9-.08-.06.03-.11.07-.18.11.07-.45.28-.65.71-.71.1-.02.23-.07.29-.16.14-.21.32-.31.56-.34.37-.04.74-.04,1.1.08.47.16.73.52.73,1.02,0,.61.04,1.21.24,1.78.07.2.16.39.25.58.06.13.04.18-.11.17-.1-.01-.19-.05-.3-.07m-1.97-3.17c-.08.06-.21.12-.22.19-.01.14.13.15.24.16.15.02.3-.08.28-.16-.03-.14-.16-.14-.3-.19Z" fill="#fff"></path>
        <path d="m22.8,29.55c-1.86-.38-3.62-1-5.15-2.13-1.11-.82-2.08-1.77-2.78-2.96-.56-.94-.85-1.98-1-3.06-.04-.25-.05-.51-.05-.77.01.02.03.04.04.07.8,2.37,2.25,4.29,4.16,5.89,1.34,1.12,2.83,1.98,4.39,2.76.14.07.28.14.42.22" fill="#fff"></path>
        <path d="m39.65,29.55c.2-.1.41-.21.61-.31,1.36-.68,2.67-1.45,3.87-2.4,1.69-1.35,3.07-2.95,3.98-4.93.2-.43.36-.87.56-1.3-.05.37-.08.74-.14,1.11-.22,1.27-.65,2.46-1.45,3.49-1.33,1.69-2.99,2.94-5.01,3.67-.79.29-1.6.5-2.4.74l-.02-.07Z" fill="#fff"></path>
        <path d="m24.24,30.43c-1.17.14-2.31.3-3.45.42-.81.09-1.63.15-2.44-.05-.12-.03-.25-.07-.36-.12-.72-.37-1.36-.84-1.86-1.49-.04-.05-.07-.1-.13-.19.1.03.16.05.22.07,1.3.43,2.62.78,3.98.98.9.13,1.8.14,2.7.17.37.01.74.08,1.1.13.08.01.15.06.24.09" fill="#fff"></path>
        <path d="m46.43,29.04c-.09.12-.18.25-.28.36-.46.52-1.01.93-1.63,1.25-.45.23-.94.28-1.42.27-.75-.02-1.5-.08-2.24-.16-.87-.08-1.74-.2-2.61-.3,0,0-.02,0-.04-.06.21-.05.42-.14.64-.15.45-.04.91-.05,1.37-.06,1.93-.01,3.8-.42,5.63-1,.19-.06.38-.12.56-.18,0,0,.02.02.02.03" fill="#fff"></path>
        <path d="m43.05,31.98c-1.12.28-2.25.42-3.39.19-1.1-.22-2.06-.75-2.93-1.51.33.06.62.12.91.15.71.08,1.42.15,2.13.22.8.08,1.6.13,2.38.35.2.06.41.14.59.24.13.07.23.2.35.3-.01.02-.02.04-.03.07" fill="#fff"></path>
        <path d="m22.21,29.77c-1.73-.02-3.43-.22-5-1.05-1.27-.67-2.27-1.63-2.87-2.96-.06-.13-.1-.26-.12-.42.08.07.16.14.24.21.98.87,1.98,1.7,3.08,2.42.9.59,1.85,1.1,2.91,1.35.45.11.9.18,1.36.27.14.03.28.09.41.14,0,.01,0,.03-.01.04" fill="#fff"></path>
        <path d="m25.68,30.67c-.82.76-1.78,1.28-2.87,1.51-1.15.24-2.29.1-3.43-.19.08-.2.21-.32.37-.38.37-.13.74-.28,1.12-.34.86-.13,1.74-.19,2.61-.3.72-.09,1.43-.19,2.15-.29.02,0,.04,0,.05,0" fill="#fff"></path>
        <path d="m48.28,25.37c-.16.33-.3.68-.49.99-.79,1.28-1.92,2.17-3.31,2.71-1.36.53-2.78.69-4.24.66.1-.04.19-.09.29-.11.39-.08.79-.16,1.19-.24,1.03-.2,1.97-.65,2.86-1.2,1.27-.78,2.41-1.73,3.52-2.72.05-.04.09-.08.14-.12.02,0,.04.02.06.03" fill="#fff"></path>
        <path d="m22.68,34.06c.21,0,.23.05.14.24-.85,1.84-1.7,3.69-2.56,5.53-.71,1.54-1.42,3.08-2.13,4.62-.07.15-.12.17-.29.09-.15-.07-.07-.16-.04-.25.95-2.07,1.91-4.14,2.86-6.2.59-1.28,1.18-2.57,1.78-3.85.05-.11.09-.22.22-.18" fill="#fff"></path>
        <path d="m39.76,34.12c.12-.02.18.06.24.18.85,1.82,1.7,3.65,2.54,5.47.69,1.49,1.39,2.98,2.08,4.47.08.17.06.21-.1.27-.11.05-.16,0-.21-.1-.27-.58-.54-1.16-.81-1.74-.91-1.96-1.82-3.91-2.73-5.87-.38-.83-.77-1.65-1.15-2.48-.07-.15-.04-.21.13-.21" fill="#fff"></path>
        <path d="m50.68,40.15c-.07.06-.12.13-.19.15-.04.01-.13-.03-.16-.07-.61-.79-1.21-1.59-1.81-2.38-1.23-1.63-2.46-3.25-3.69-4.88-.13-.17-.12-.21.04-.31.11-.07.17-.02.23.07.89,1.18,1.77,2.35,2.66,3.53.93,1.24,1.87,2.48,2.8,3.71.04.05.07.1.11.18" fill="#fff"></path>
        <path d="m17.88,32.72c-.05.07-.08.12-.11.17-.77,1.01-1.53,2.02-2.3,3.03-1.02,1.35-2.04,2.7-3.07,4.05-.07.1-.13.17-.27.08-.12-.08-.13-.16-.04-.27.39-.5.77-1.01,1.15-1.52,1.32-1.74,2.64-3.49,3.96-5.23.11-.14.21-.29.33-.42.03-.04.11-.07.14-.05.07.03.13.1.21.16" fill="#fff"></path>
        <path d="m37.34,15.18c.3.08.58.15.86.23,2.53.66,5.05,1.33,7.58,2,.09.02.24,0,.21.17-.02.12-.19.2-.32.17-.95-.25-1.9-.5-2.85-.75-1.81-.48-3.61-.95-5.42-1.43-.18-.05-.23-.14-.14-.31.02-.03.07-.05.09-.07" fill="#fff"></path>
        <path d="m24.91,15.55s-.09.07-.15.09c-.57.16-1.14.32-1.71.48-1.9.54-3.81,1.08-5.71,1.62-.12.03-.23.06-.31-.06-.03-.04-.09-.11-.08-.14.02-.05.08-.08.14-.1.43-.13.85-.25,1.28-.37,2.09-.59,4.18-1.18,6.27-1.78.2-.06.26,0,.26.24" fill="#fff"></path>
        <path d="m36.04,17.68c.08.05.13.08.18.12.7.57,1.4,1.14,2.1,1.71,1.16.94,2.31,1.88,3.47,2.82.03.02.06.05.08.07.08.06.13.13.04.22-.08.09-.16.15-.28.05-.72-.59-1.45-1.18-2.17-1.77-1.16-.94-2.32-1.88-3.48-2.83-.05-.04-.1-.13-.09-.19.01-.07.09-.13.14-.2" fill="#fff"></path>
        <path d="m34.75,18.98c.04.07.07.13.11.19.54.72,1.09,1.44,1.63,2.16.8,1.06,1.6,2.12,2.4,3.17.09.12.08.18-.04.27-.12.09-.18.04-.26-.05-1.35-1.79-2.7-3.57-4.04-5.36-.03-.05-.06-.14-.04-.18.03-.06.11-.1.23-.2" fill="#fff"></path>
        <path d="m28.15,34.32c-.15.03-.29.07-.43.08-.33.02-.57-.12-.65-.38-.09-.28.02-.62.28-.79.55-.38,1.34-.1,1.5.55.12.49.04.94-.34,1.3-.34.31-.89.36-1.23.09-.09-.07-.15-.19-.18-.3-.04-.14.02-.27.16-.32.13-.06.27-.06.39.04.12.1.12.22.07.36-.02.05-.05.11-.06.16,0,.06,0,.17.03.17.07.02.16.01.23-.01.04-.01.07-.08.09-.12.12-.26.14-.54.15-.82m0-.07c0-.33.02-.68-.11-1-.02-.06-.12-.14-.17-.14-.06,0-.14.1-.15.16-.07.26-.05.53.05.79.07.18.18.23.39.19Z" fill="#fff"></path>
        <path d="m36.14,26.45c-.11-.01-.2-.03-.26-.16-.92-1.98-1.84-3.96-2.76-5.94-.05-.1-.05-.17.07-.21.11-.04.2-.08.27.07.44.96.89,1.91,1.33,2.86.49,1.05.98,2.1,1.47,3.15.07.15.04.22-.11.23" fill="#fff"></path>
        <path d="m26.26,18.17c-.05.06-.08.1-.12.14-.86.71-1.73,1.41-2.6,2.12-.79.64-1.58,1.29-2.36,1.93-.09.07-.17.19-.31.06-.12-.11-.12-.17,0-.28.43-.36.87-.71,1.3-1.07,1.25-1.02,2.49-2.04,3.74-3.05.05-.04.14-.08.18-.06.06.04.1.12.16.2" fill="#fff"></path>
        <path d="m27.95,19.42s-.05.08-.07.12c-1.27,1.68-2.55,3.37-3.82,5.05-.07.1-.14.15-.26.07-.13-.09-.14-.14-.04-.26.47-.63.95-1.25,1.42-1.88.8-1.06,1.61-2.12,2.41-3.18.11-.15.19-.15.31-.01.02.03.03.06.05.1" fill="#fff"></path>
        <path d="m29.02,20.13c.23.02.28.11.21.28-.8,1.75-1.61,3.49-2.41,5.23-.07.16-.16.32-.22.49-.05.13-.11.18-.26.12-.15-.07-.12-.15-.07-.26.42-.91.84-1.81,1.26-2.72.46-1,.92-2,1.38-2.99.03-.06.09-.11.12-.14" fill="#fff"></path>
        <path d="m35.18,35.19c-.22-.12-.26-.32-.25-.57-.06,0-.11,0-.21-.01.02.24.05.46.07.69h-.81c0-.27.09-.49.32-.68h-1.2c.66-.34.82-.85.65-1.5h.91c.14.5-.17,1.09-.78,1.44.32,0,.63.09.85-.27,0,.12,0,.19.01.26.11.01.2.03.28-.08.1-.15.36-.15.49-.04.13.12.15.34.01.48-.06.06-.14.1-.21.15-.05.04-.09.08-.14.12h0Z" fill="#fff"></path>
        <path d="m35.18,35.19c.15.05.3.11.47.02.25-.13.38-.52.27-.8-.09-.24-.34-.34-.64-.28-.06.01-.11.03-.17.05v-1.06c.14.16.29.12.45.08.22-.05.45-.11.68-.12.29,0,.41.15.41.44,0,.13,0,.26,0,.42-.3-.28-.63-.2-.96-.17-.26.02-.34,0-.54-.19v.51c.25-.03.5-.08.75-.09.15,0,.31.03.44.09.41.19.48.74.14,1.04-.29.26-.97.28-1.29.05h0" fill="#fff"></path>
        <path d="m10.04,31.43c-.05-.07-.12-.12-.14-.18-.01-.05.01-.14.05-.17.26-.22.52-.44.79-.65.95-.77,1.89-1.55,2.84-2.32.03-.03.07-.05.1-.08.08-.07.15-.12.24-.01.1.13.1.2-.02.29-1.24,1.01-2.48,2.02-3.72,3.03-.04.03-.08.05-.14.09" fill="#fff"></path>
        <path d="m48.54,28.21c.06-.09.09-.19.15-.22.04-.02.14.04.2.09,1.09.88,2.18,1.77,3.27,2.66.13.11.13.16.03.3-.1.13-.17.04-.25-.02-.75-.61-1.5-1.22-2.26-1.83-.34-.27-.68-.55-1.01-.82-.05-.04-.08-.1-.13-.15" fill="#fff"></path>
        <path d="m25.94,33.48c.25-.11.52-.24.81-.38,0,.07,0,.12,0,.18,0,.49,0,.99,0,1.48,0,.18.03.36.05.54h-.91c.15-.3.09-.61.08-.91,0-.3.05-.6-.05-.91" fill="#fff"></path>
        <path d="m29.35,24.71c.07-.28.14-.52.2-.76.23-.85.46-1.71.69-2.56.02-.09.04-.17.17-.16.18.02.22.07.17.25-.27,1.03-.55,2.06-.83,3.09-.04.15-.14.23-.29.21-.04,0-.08-.05-.11-.08" fill="#fff"></path>
        <path d="m32.7,24.42c-.11.02-.15-.05-.18-.15-.29-.97-.59-1.94-.89-2.91-.03-.1-.04-.18.09-.2.11-.03.21-.05.26.11.17.58.35,1.16.53,1.74.12.4.25.8.37,1.2.05.18.02.23-.17.22" fill="#fff"></path>
        <path d="m24.45,41.71c.14-.25.26-.46.56-.54,1.07-.3,2.13-.59,3.24-.7.43-.05.88-.02,1.32-.02.06,0,.12.02.17.04.57.26.72.33.65.93-.15-.1-.3-.23-.47-.32-.4-.21-.83-.17-1.26-.14-1.37.1-2.72.39-4.05.72-.04.01-.09.02-.16.03" fill="#fff"></path>
        <path d="m30.3,42.86c-.44-.54-1.02-.52-1.6-.47-1.39.11-2.73.42-4.07.79-.05.01-.11.03-.18.05.15-.27.29-.47.6-.56,1.06-.33,2.13-.64,3.24-.76.42-.05.85-.02,1.27-.02.04,0,.08.01.12.03.54.22.7.36.62.96" fill="#fff"></path>
        <path d="m27.19,39.78v-.51c.43-.06.87-.14,1.3-.16.38-.02.76,0,1.14.03.16.01.32.1.46.18.37.21.43.35.35.79-.06-.05-.1-.09-.16-.13-.35-.28-.76-.4-1.21-.36-.6.04-1.2.11-1.8.16-.03,0-.06,0-.1,0" fill="#fff"></path>
        <path d="m26.89,44.22c.04-.34.19-.56.53-.64.7-.17,1.41-.22,2.12-.14.11.01.21.06.31.11.25.13.43.32.39.64,0,.07,0,.14,0,.24-.04-.05-.07-.08-.1-.12-.2-.24-.48-.35-.78-.36-.72-.03-1.45,0-2.16.18-.1.02-.2.06-.31.1" fill="#fff"></path>
        <path d="m26.13,39.99c-.33.08-.64.16-.96.23.14-.48.55-.56.96-.65v.42Z" fill="#fff"></path>
        <path d="m32.06,40.13c0-.18,0-.32,0-.45,0-.06.05-.13.09-.17.35-.32.76-.45,1.23-.44.78,0,1.55.14,2.3.33.59.15,1.17.34,1.76.49.31.08.49.27.62.56-.07-.02-.14-.03-.2-.04-1.17-.32-2.35-.59-3.55-.74-.32-.04-.65-.06-.97-.06-.48,0-.9.15-1.28.52" fill="#fff"></path>
        <path d="m38.09,43.21c-.58-.14-1.13-.29-1.68-.41-.95-.22-1.9-.39-2.87-.43-.49-.02-.95.06-1.29.48-.08-.45.02-.69.41-.86.23-.09.48-.15.73-.15.9-.02,1.77.17,2.64.4.51.13,1,.3,1.51.44.19.05.34.15.43.33.03.07.08.12.13.2" fill="#fff"></path>
        <path d="m32.14,41.46c0-.17,0-.31,0-.45,0-.06.04-.12.08-.16.24-.26.54-.41.89-.43.83-.05,1.64.03,2.44.28.32.1.49.32.63.6-.27-.06-.52-.13-.79-.18-.72-.14-1.44-.2-2.18-.18-.4,0-.74.17-1.08.51" fill="#fff"></path>
        <path d="m32.31,44.42c-.08-.61.22-.96.85-1,.54-.04,1.07.04,1.59.14.17.03.35.07.52.1v.51c-.18-.03-.34-.07-.51-.08-.45-.05-.89-.11-1.34-.14-.44-.03-.83.07-1.1.47" fill="#fff"></path>
        <path d="m38.95,45.09c-.84-.22-1.66-.44-2.48-.65-.12-.03-.16-.08-.15-.2,0-.1,0-.2,0-.32.38.11.74.21,1.1.33.33.1.65.23.98.32.19.05.33.15.41.32.03.07.08.13.13.2" fill="#fff"></path>
        <path d="m15.25,11.35l-1.48-1.98-.33.24-.08-.11,1.06-.79.08.11-.32.24,1.46,1.96c.16.22.33.34.52.38.19.04.37-.02.57-.16.22-.17.34-.36.36-.59.01-.23-.08-.47-.28-.74l-1.34-1.8-.32.24-.08-.11.77-.57.08.11-.32.24,1.35,1.81c.24.32.34.62.3.89-.04.27-.21.52-.53.76-.27.2-.54.29-.8.27-.26-.02-.48-.15-.66-.4" fill="#fff"></path>
        <polygon points="18.06 10.37 17.99 10.26 18.33 10.07 16.76 7.25 16.43 7.44 16.36 7.32 17.25 6.83 19.76 8.28 18.61 6.22 18.27 6.41 18.2 6.3 19.05 5.82 19.11 5.94 18.76 6.14 20.44 9.14 20.32 9.21 16.94 7.22 18.48 9.99 18.82 9.79 18.89 9.91 18.06 10.37" fill="#fff"></polygon>
        <polygon points="20.9 8.84 20.84 8.72 21.25 8.54 19.96 5.59 19.56 5.76 19.5 5.64 20.81 5.07 20.86 5.2 20.45 5.38 21.74 8.33 22.15 8.15 22.2 8.27 20.9 8.84" fill="#fff"></polygon>
        <polygon points="23.7 7.83 21.52 4.92 21.16 5.04 21.12 4.91 22.38 4.5 22.42 4.62 22.03 4.75 23.66 6.92 23.67 4.21 23.22 4.36 23.18 4.24 24.13 3.93 24.17 4.05 23.82 4.17 23.81 7.79 23.7 7.83" fill="#fff"></polygon>
        <path d="m25.25,7.24l-.03-.13.39-.08-.63-3.16-.39.08-.03-.13,2.54-.5.16.82-.11.02c-.09-.25-.21-.42-.35-.49-.14-.08-.37-.08-.67-.02l-.64.13.29,1.45.1-.02c.22-.04.37-.12.45-.21.08-.1.1-.25.08-.45l.11-.02.25,1.29-.11.02c-.06-.23-.15-.37-.27-.44-.12-.07-.31-.08-.56-.03h-.03s.31,1.59.31,1.59l.72-.14c.28-.06.48-.16.59-.31.11-.15.17-.39.17-.72l.11-.02.14.98-2.61.52Z" fill="#fff"></path>
        <path d="m28.14,6.54l.41-.03-.23-3.22-.39.03v-.13s1.46-.1,1.46-.1c.39-.03.69.02.91.14.22.12.34.3.36.54.02.24-.06.44-.24.6-.18.16-.43.26-.76.3v.04c.26.03.47.1.64.22.17.12.27.28.32.47.02.1.04.24.06.43.02.19.04.32.07.39.03.06.06.1.11.13.04.03.1.04.17.03.04,0,.08-.01.13-.03.04-.01.09-.03.14-.06v.13c-.07.04-.16.08-.24.1-.08.02-.16.04-.23.04-.22.02-.39-.06-.51-.22-.12-.16-.2-.43-.25-.8,0,0,0-.02,0-.04-.03-.27-.1-.45-.2-.55-.08-.07-.17-.13-.27-.16-.11-.03-.22-.05-.34-.04l-.31.02.12,1.69.4-.03v.13s-1.32.09-1.32.09v-.13Zm.79-1.89l.31-.02c.36-.02.59-.09.71-.21.11-.11.16-.3.14-.58-.02-.25-.08-.42-.19-.51-.11-.09-.31-.12-.61-.1l-.46.03.1,1.39Z" fill="#fff"></path>
        <path d="m31.5,6.5h-.09s.04-.92.04-.92h.1c.07.27.19.48.37.63.17.16.37.24.6.25.25.01.46-.06.64-.21.18-.15.27-.34.28-.56.01-.27-.24-.49-.75-.68-.04-.01-.07-.02-.09-.03-.44-.16-.73-.32-.87-.48-.14-.16-.2-.36-.19-.62.01-.29.12-.52.31-.69.2-.17.45-.25.75-.24.22,0,.43.08.62.21.04.03.06.04.06.04.01,0,.02,0,.03,0,0,0,.02,0,.02-.02l.11-.12h.11s-.03.8-.03.8h-.1c-.07-.25-.18-.44-.33-.57-.15-.13-.33-.2-.55-.21-.2,0-.37.04-.51.16-.14.11-.22.25-.22.42,0,.14.04.26.14.35.1.1.27.18.51.25.03.01.09.03.16.05.4.12.66.24.78.34.11.09.19.21.25.34.05.13.08.28.07.45-.02.36-.14.64-.36.85-.22.2-.52.3-.88.28-.25-.01-.48-.09-.69-.24-.03-.02-.05-.04-.06-.04,0,0-.01,0-.02,0,0,0-.02.01-.03.02l-.17.16Z" fill="#fff"></path>
        <polygon points="33.76 6.6 33.77 6.47 34.21 6.53 34.61 3.33 34.17 3.27 34.18 3.14 35.6 3.32 35.58 3.45 35.13 3.39 34.74 6.59 35.19 6.65 35.17 6.78 33.76 6.6" fill="#fff"></polygon>
        <path d="m35.87,6.9l.03-.13.43.09.67-3.15s-.04-.01-.07-.02c-.02,0-.06-.01-.1-.02-.24-.05-.43-.03-.58.07-.14.1-.28.3-.42.62l-.11-.02.25-.98,2.63.56-.17,1-.11-.02c.02-.32-.02-.56-.12-.72-.1-.16-.28-.26-.54-.32-.04,0-.08-.02-.1-.02-.02,0-.04,0-.05,0l-.67,3.15.42.09-.03.13-1.36-.29Z" fill="#fff"></path>
        <path d="m37.63,7.24l.04-.13.39.13,2.21-2.9.13.04-.02,3.62.35.11-.04.13-1.26-.41.04-.13.41.13.02-1.17-.96-.31-.7.95.42.14-.04.13-.98-.32Zm1.4-1.02l.87.28.02-1.47-.89,1.18Z" fill="#fff"></path>
        <path d="m41.02,8.43l.06-.12.4.18,1.33-2.93s-.04-.02-.06-.03c-.02-.01-.05-.03-.1-.05-.22-.1-.42-.12-.58-.06-.16.06-.34.24-.54.51l-.11-.05.46-.9,2.45,1.11-.38.94-.11-.05c.09-.31.1-.55.04-.73-.06-.18-.21-.32-.45-.43-.04-.02-.07-.03-.09-.04-.02,0-.04-.01-.05-.02l-1.34,2.93.39.18-.05.12-1.27-.58Z" fill="#fff"></path>
        <path d="m42.98,9.32l.07-.11.34.2,1.66-2.76-.34-.2.07-.11,2.22,1.34-.43.72-.1-.06c.1-.25.13-.45.07-.6-.06-.15-.22-.31-.48-.47l-.56-.34-.76,1.27.09.05c.19.12.35.16.48.14.12-.02.25-.12.37-.28l.09.06-.68,1.12-.1-.06c.11-.21.14-.38.1-.51-.04-.13-.18-.27-.4-.4h-.02s-.83,1.37-.83,1.37l.63.38c.25.15.46.21.64.17.18-.04.38-.18.61-.42l.1.06-.56.82-2.28-1.37Z" fill="#fff"></path>
        <path d="m45.38,10.75l.08-.1.33.26,3.06-1.98.1.08-1.25,3.4.29.23-.08.1-1.04-.82.08-.1.34.27.42-1.1-.79-.62-.98.65.35.27-.08.1-.81-.63Zm1.66-.49l.72.56.52-1.37-1.23.81Z" fill="#fff"></path>
        <path d="m6.04,18.66l2.02.94.11-.25.08.04-.37.8c-.16.35-.38.58-.65.68-.27.1-.58.08-.92-.08-.2-.09-.37-.21-.49-.35-.13-.14-.21-.31-.26-.49-.02-.11-.03-.22,0-.34.02-.12.06-.25.13-.4l.38-.83.08.04-.11.25Zm1.87,1.27l-2.03-.94-.11.24c-.05.11-.08.21-.1.31-.01.1-.01.18,0,.26.03.11.09.21.19.29.1.08.29.19.59.33.26.12.46.19.58.22.13.02.24.02.34-.02.09-.03.16-.09.23-.16.07-.08.13-.18.2-.32l.1-.21Z" fill="#fff"></path>
        <path d="m5.02,20.71l.09.03-.09.26,2.1.76.09-.26.09.03-.61,1.69-.54-.2.03-.07c.18.04.32.03.42-.03.1-.06.18-.19.25-.39l.15-.43-.96-.35-.02.07c-.05.15-.06.26-.03.34.03.08.11.15.24.21l-.03.07-.85-.31.03-.07c.15.05.27.05.36,0,.09-.05.16-.16.22-.32v-.02s-1.04-.38-1.04-.38l-.17.48c-.07.19-.08.34-.03.46.05.12.17.24.37.36l-.03.08-.63-.27.62-1.73Z" fill="#fff"></path>
        <polygon points="3.95 23.91 4.04 23.93 3.98 24.19 6.16 24.67 6.21 24.41 6.3 24.43 6.15 25.14 4.29 25.25 5.92 26.17 5.77 26.86 5.68 26.84 5.74 26.57 3.56 26.09 3.5 26.36 3.41 26.34 3.6 25.46 3.69 25.48 3.64 25.75 5.78 26.22 5.79 26.21 3.7 25.03 3.72 24.94 6.1 24.8 6.1 24.77 3.95 24.3 3.9 24.57 3.81 24.55 3.95 23.91" fill="#fff"></polygon>
        <path d="m3.34,26.82h.09s-.03.28-.03.28l2.21.28.03-.27h.09s-.22,1.79-.22,1.79l-.57-.07v-.08c.2,0,.33-.05.41-.12.08-.08.13-.22.16-.44l.06-.45-1.01-.13v.07c-.03.16-.01.27.03.34.05.07.14.12.28.15v.07s-.91-.11-.91-.11v-.08c.17.01.29-.02.36-.08.07-.07.12-.19.14-.36v-.02s-1.11-.14-1.11-.14l-.06.51c-.02.2,0,.35.07.45.07.1.22.19.44.27v.08s-.69-.12-.69-.12l.23-1.83Z" fill="#fff"></path>
        <path d="m3.15,29.46l2.23.08v-.27s.1,0,.1,0l-.03.88c-.01.39-.13.68-.34.88-.21.2-.51.29-.88.28-.22,0-.42-.05-.59-.14-.17-.08-.31-.2-.43-.36-.06-.09-.11-.19-.14-.31-.03-.12-.04-.25-.03-.42l.03-.92h.09s-.01.28-.01.28Zm2.22.45l-2.23-.08v.26c-.01.12,0,.23.02.32.02.09.06.17.11.23.07.09.17.15.29.19.12.04.35.07.67.08.29.01.5,0,.62-.02.13-.03.23-.07.3-.14.07-.06.12-.14.15-.24.03-.1.05-.22.06-.37v-.23Z" fill="#fff"></path>
        <polygon points="3 31.67 3.1 31.67 3.1 31.97 5.33 31.9 5.32 31.6 5.42 31.6 5.45 32.58 5.35 32.58 5.34 32.27 3.11 32.34 3.12 32.65 3.03 32.65 3 31.67" fill="#fff"></polygon>
        <path d="m3.85,34.72v.07s-.64.06-.64.06v-.08s.09-.12.09-.12c-.06-.07-.11-.15-.15-.24-.04-.09-.06-.2-.07-.32-.03-.3.06-.56.27-.77.21-.21.49-.33.85-.37.17-.02.34,0,.49.03.16.03.3.09.43.18.13.08.24.19.32.32.08.13.13.27.14.42,0,.1,0,.19-.02.28-.02.09-.06.18-.12.27l.13.11v.05s-.6.06-.6.06v-.08c.18-.07.32-.16.41-.28.09-.12.13-.26.11-.42-.02-.22-.14-.37-.34-.46-.21-.08-.54-.1-.99-.06-.21.02-.38.05-.49.08-.12.03-.21.07-.28.12-.08.06-.14.13-.18.22-.04.09-.06.18-.05.28.02.17.08.32.2.43.11.11.28.19.48.23" fill="#fff"></path>
        <polygon points="3.28 35.3 3.37 35.29 3.42 35.59 5.62 35.24 5.57 34.94 5.67 34.93 5.82 35.9 5.73 35.91 5.68 35.61 3.48 35.95 3.53 36.26 3.44 36.28 3.28 35.3" fill="#fff"></polygon>
        <polygon points="3.49 36.66 3.58 36.64 3.64 36.9 5.81 36.4 5.75 36.14 5.84 36.12 6 36.81 4.55 38.2 6.14 37.83 6.08 37.57 6.17 37.54 6.32 38.2 6.23 38.22 6.17 37.94 3.84 38.48 3.82 38.38 5.8 36.53 3.66 37.01 3.73 37.28 3.64 37.3 3.49 36.66" fill="#fff"></polygon>
        <path d="m4.05,39.06l.09-.03.09.27,2.52.05.03.09-2.03,1.46.08.24-.09.03-.28-.87.09-.03.09.28.66-.47-.22-.66h-.82s.09.28.09.28l-.09.03-.22-.68Zm1.14.36l.19.6.83-.59h-1.02Z" fill="#fff"></path>
        <path d="m4.43,41.76c.12.07.23.12.34.15.11.02.19.02.26,0,.03-.01.06-.03.07-.04.01-.02.02-.03.01-.04,0,0-.03-.01-.08-.03-.05-.02-.09-.05-.11-.11-.02-.05-.02-.09,0-.14.02-.04.05-.07.1-.09.06-.02.12-.02.18,0,.06.03.1.08.12.15.03.08.03.16,0,.23-.04.07-.1.13-.19.16-.1.04-.22.05-.35.02-.13-.03-.26-.09-.39-.19l.05-.06Z" fill="#fff"></path>
        <path d="m5.63,43.31l.08-.04.12.24,1.99-1-.12-.24.08-.04.8,1.6-.57.29-.03-.07c.18-.11.28-.22.31-.33.03-.12,0-.27-.1-.47l-.2-.4-.93.47.02.03c.07.14.15.23.23.27.08.04.19.03.32-.02l.04.07-.8.4-.03-.07c.13-.08.21-.16.24-.25.03-.09.01-.19-.05-.32,0,0,0-.02-.02-.03,0-.01-.01-.02-.02-.03l-.97.49.13.26-.08.04-.41-.83Z" fill="#fff"></path>
        <path d="m6.44,44.94l.08-.05.15.25,2.47-.51.05.08-1.65,1.88.13.22-.08.05-.47-.79.08-.05.15.26.54-.6-.36-.6-.8.18.16.26-.08.05-.36-.61Zm1.19.1l.32.54.68-.76-1,.22Z" fill="#fff"></path>
        <path d="m7.84,47.07l.17.23,1.81-1.31-.16-.22.07-.05.6.83c.16.22.24.41.25.59,0,.17-.05.31-.19.41-.14.1-.28.12-.44.08-.16-.05-.31-.16-.45-.34l-.02.02c.08.16.11.31.1.46-.01.14-.06.26-.16.36-.05.05-.13.11-.23.19-.11.08-.17.14-.2.18-.03.04-.04.07-.04.11,0,.04.02.07.04.11.02.02.04.05.06.07.02.02.05.04.08.06l-.07.05c-.06-.03-.11-.07-.15-.11-.04-.04-.08-.08-.11-.12-.09-.12-.11-.25-.06-.38.05-.13.18-.28.38-.44,0,0,.01,0,.02-.02.15-.12.23-.22.25-.32.01-.07.01-.14,0-.22-.02-.07-.05-.15-.1-.21l-.13-.17-.95.69.16.23-.07.05-.54-.75.07-.05Zm1.4-.22l.12.17c.14.2.27.31.38.34.11.03.24-.02.39-.13.14-.1.22-.2.23-.3.01-.1-.04-.23-.16-.4l-.18-.26-.78.56Z" fill="#fff"></path>
        <polygon points="9.3 49.22 9.37 49.16 9.55 49.36 11.22 47.89 11.04 47.69 11.11 47.63 11.59 48.17 10.59 49.74 12.29 48.96 12.76 49.5 12.69 49.56 12.5 49.34 10.83 50.82 11.02 51.03 10.95 51.09 10.35 50.42 10.42 50.36 10.6 50.56 12.25 49.11 12.24 49.09 10.06 50.09 10 50.02 11.29 48.01 11.27 47.99 9.62 49.45 9.8 49.65 9.73 49.71 9.3 49.22" fill="#fff"></polygon>
        <path d="m11.19,51.33l.06-.07.21.2,2.23-1.17.07.06-1.07,2.26.18.17-.06.07-.67-.63.06-.07.22.2.35-.73-.51-.48-.72.39.22.21-.06.07-.52-.49Zm1.17-.23l.46.43.44-.91-.9.48Z" fill="#fff"></path>
        <path d="m14.78,53.61l.05.04-.4.5-.06-.05-.02-.16c-.09,0-.19-.02-.28-.06-.09-.04-.19-.1-.28-.17-.24-.19-.36-.43-.36-.73,0-.3.1-.59.33-.87.11-.14.23-.25.36-.34.13-.09.27-.15.42-.18.15-.04.3-.04.45,0,.15.03.28.09.4.18.08.06.14.13.19.21.05.08.08.17.11.28l.17-.02.04.03-.38.48-.06-.05c.08-.18.11-.35.09-.49-.02-.15-.1-.27-.22-.37-.17-.14-.36-.16-.57-.07-.2.09-.45.32-.73.67-.13.17-.23.3-.29.41-.06.1-.09.2-.1.29-.01.09,0,.19.04.28.04.09.09.17.17.23.14.11.28.16.44.16.16,0,.32-.07.5-.19" fill="#fff"></path>
        <polygon points="14.81 54.43 14.87 54.35 15.12 54.53 16.39 52.7 16.14 52.53 16.2 52.45 17 53.01 16.95 53.09 16.69 52.91 15.42 54.74 15.67 54.92 15.62 54.99 14.81 54.43" fill="#fff"></polygon>
        <path d="m15.94,55.22l.05-.08.23.14,1.16-1.91-.23-.14.05-.08,1.53.93-.3.5-.07-.04c.07-.17.09-.31.05-.42-.04-.11-.15-.21-.33-.33l-.39-.23-.53.87.06.04c.13.08.24.11.33.1.09-.01.17-.08.25-.19l.06.04-.47.78-.07-.04c.08-.14.1-.26.07-.35-.03-.09-.12-.19-.27-.28h-.02s-.58.95-.58.95l.44.26c.17.1.32.14.44.12.12-.02.27-.12.42-.29l.07.04-.39.57-1.58-.96Z" fill="#fff"></path>
        <path d="m17.82,56.91c.14-.02.25-.06.35-.11.1-.05.16-.11.2-.17.02-.03.03-.06.03-.08,0-.02,0-.04-.02-.04,0,0-.03,0-.08.03-.05.02-.1.02-.16,0-.05-.02-.07-.06-.09-.1-.01-.04,0-.09.02-.14.03-.06.08-.1.14-.11.06-.02.12,0,.19.03.08.04.13.1.15.18.02.08,0,.16-.04.25-.05.1-.14.18-.26.24-.12.06-.26.1-.42.11v-.08Z" fill="#fff"></path>
        <path d="m19.72,58.01l.11-.11c.05.07.1.12.16.17.06.05.11.08.16.1.07.03.13.04.17.03.04-.01.08-.04.1-.1.02-.05.02-.09,0-.13-.02-.04-.06-.07-.12-.1-.02,0-.03-.01-.05-.02-.02,0-.04-.01-.06-.02l.13-.31.11.04-.08.19s.04.01.05.02c.02,0,.03.01.05.02.1.04.16.1.19.17.03.07.03.15,0,.23-.04.09-.1.15-.19.17-.09.02-.19.01-.3-.03-.06-.03-.12-.06-.19-.11-.07-.05-.15-.12-.24-.22m.06-.69l-.06-.02.25-.58.06.03c-.02.19.01.35.09.5.07.14.18.24.33.31.16.07.32.07.47.02.15-.05.26-.15.32-.3.07-.17-.04-.38-.33-.62-.02-.02-.04-.03-.05-.04-.25-.21-.4-.38-.45-.52-.05-.13-.05-.28.02-.45.08-.18.2-.31.37-.37.17-.06.35-.06.54.03.14.06.26.16.35.29.02.02.03.04.03.04,0,0,.01,0,.02,0,0,0,.01,0,.02,0l.1-.05.07.03-.21.51-.06-.03c.01-.18-.01-.33-.08-.45-.06-.12-.17-.21-.31-.27-.13-.05-.25-.06-.37-.02-.12.04-.2.11-.25.22-.04.09-.04.18,0,.26.04.09.13.18.27.29.02.01.05.04.09.07.23.18.37.31.42.41.05.09.07.18.08.28,0,.1-.02.2-.06.31-.1.23-.24.38-.44.46-.19.08-.41.07-.64-.03-.16-.07-.29-.18-.39-.32-.02-.02-.03-.04-.03-.04,0,0,0,0-.01,0,0,0-.01,0-.02,0l-.15.06Z" fill="#fff"></path>
        <path d="m21.86,58.15l.03-.09.29.1.72-2.11s-.03-.01-.05-.02c-.02,0-.04-.01-.07-.02-.16-.05-.29-.05-.4,0-.11.06-.22.19-.34.39l-.08-.03.26-.65,1.76.6-.2.67-.08-.03c.04-.22.03-.39-.02-.5-.06-.12-.17-.2-.34-.26-.03,0-.05-.02-.07-.02-.01,0-.03,0-.04,0l-.72,2.11.28.1-.03.09-.91-.31Z" fill="#fff"></path>
        <polygon points="23.5 58.69 23.52 58.6 23.81 58.68 24.4 56.53 24.11 56.45 24.13 56.36 25.08 56.62 25.06 56.71 24.76 56.62 24.17 58.77 24.47 58.86 24.44 58.95 23.5 58.69" fill="#fff"></polygon>
        <polygon points="24.75 59.02 24.77 58.93 25.07 59 25.56 56.82 25.26 56.76 25.28 56.67 26.24 56.88 26.22 56.97 25.92 56.9 25.43 59.08 25.73 59.15 25.71 59.24 24.75 59.02" fill="#fff"></polygon>
        <polygon points="26.08 59.33 26.1 59.24 26.37 59.28 26.71 57.08 26.44 57.04 26.46 56.94 27.15 57.05 27.9 58.92 28.15 57.3 27.88 57.26 27.9 57.17 28.56 57.27 28.55 57.36 28.27 57.32 27.9 59.67 27.81 59.66 26.81 57.14 26.48 59.3 26.75 59.34 26.73 59.43 26.08 59.33" fill="#fff"></polygon>
        <path d="m28.99,59.72v-.09s.31.02.31.02l.16-2.22s-.03,0-.05,0c-.02,0-.04,0-.07,0-.17-.01-.3.02-.39.1-.09.08-.17.24-.23.46h-.08s.08-.7.08-.7l1.86.13-.02.7h-.08c-.02-.23-.07-.39-.15-.49-.08-.1-.22-.15-.4-.17-.03,0-.05,0-.07,0-.01,0-.03,0-.04,0l-.16,2.22.3.02v.09s-.97-.07-.97-.07Z" fill="#fff"></path>
        <path d="m30.78,59.84v-.09s.27,0,.27,0v-2.23s-.29,0-.29,0v-.09s1.79-.01,1.79-.01v.58s-.07,0-.07,0c-.03-.18-.09-.31-.17-.38-.09-.07-.24-.1-.45-.1h-.45s0,1.03,0,1.03h.07c.16,0,.27-.03.33-.09.07-.06.1-.16.11-.3h.08s0,.91,0,.91h-.08c0-.16-.05-.27-.13-.34-.07-.06-.2-.09-.38-.09h-.02v1.12s.52,0,.52,0c.2,0,.35-.05.44-.13.09-.09.16-.24.21-.47h.08s-.03.69-.03.69h-1.84Z" fill="#fff"></path>
        <path d="m34.17,59.73h-.06s-.07-.62-.07-.62h.07c.08.16.18.29.32.38.13.09.28.12.43.11.17-.02.31-.09.42-.21.11-.12.15-.26.13-.42-.02-.18-.22-.31-.59-.38-.03,0-.05,0-.07-.01-.32-.06-.53-.14-.65-.23-.11-.09-.18-.22-.2-.4-.02-.2.02-.37.14-.5.12-.14.28-.22.48-.25.15-.02.3,0,.45.08.03.01.04.02.05.02,0,0,.01,0,.02,0,0,0,0,0,.01-.02l.06-.09h.08s.06.54.06.54h-.07c-.08-.15-.17-.27-.29-.34-.12-.07-.25-.1-.4-.08-.14.02-.25.07-.33.16-.08.09-.12.2-.11.31.01.1.06.17.14.23.08.05.2.09.37.12.02,0,.06,0,.11.02.28.04.47.09.57.15.09.05.15.12.21.21.05.09.08.19.1.3.03.25-.02.45-.15.62-.13.16-.32.26-.57.29-.17.02-.34,0-.5-.09-.03-.01-.04-.02-.04-.02,0,0,0,0-.01,0,0,0,0,0-.02.02l-.1.13Zm.29.63l.04-.15c.08.03.15.06.22.07.07.01.14.02.19.01.08,0,.13-.03.16-.06.03-.03.04-.07.04-.13,0-.05-.03-.08-.07-.11-.04-.02-.09-.03-.15-.02-.02,0-.03,0-.05.01-.02,0-.04,0-.06.01l-.04-.34h.11s.02.19.02.19c.02,0,.04,0,.06-.01s.04,0,.05-.01c.1-.01.19,0,.25.05.06.05.1.11.11.2.01.1-.01.18-.08.24-.06.06-.16.1-.28.12-.07,0-.14,0-.22,0-.08-.01-.19-.03-.32-.07Z" fill="#fff"></path>
        <polygon points="35.97 59.49 35.95 59.41 36.25 59.35 35.87 57.15 35.57 57.21 35.55 57.12 36.52 56.95 36.54 57.04 36.23 57.09 36.61 59.29 36.92 59.24 36.94 59.33 35.97 59.49" fill="#fff"></polygon>
        <path d="m38.62,58.95l-.02-.09.29-.08-.59-2.15s-.03,0-.05.01c-.02,0-.04,0-.07.02-.16.04-.27.12-.33.23-.06.11-.08.28-.06.51l-.08.02-.15-.68,1.8-.49.21.67-.08.02c-.09-.2-.19-.34-.3-.41-.11-.07-.25-.07-.43-.03-.03,0-.05.01-.07.02-.01,0-.03,0-.04.01l.59,2.15.29-.08.02.09-.93.25Z" fill="#fff"></path>
        <path d="m40.35,58.46l-.03-.09.26-.09-.76-2.1-.26.09-.03-.09,1.69-.61.2.54-.07.03c-.09-.16-.19-.26-.29-.3-.11-.04-.26-.02-.46.05l-.43.15.35.96.07-.03c.15-.05.24-.12.28-.19.04-.08.05-.18,0-.32l.07-.03.31.85-.07.03c-.06-.15-.14-.24-.23-.28-.09-.03-.22-.02-.39.04h-.02s.38,1.06.38,1.06l.48-.17c.19-.07.31-.16.37-.27.06-.11.07-.28.04-.51l.08-.03.2.66-1.73.63Z" fill="#fff"></path>
        <polygon points="42.58 57.64 42.54 57.56 42.79 57.45 41.84 55.43 41.6 55.54 41.56 55.46 42.38 55.07 42.42 55.16 42.17 55.27 42.61 56.2 43.55 55.76 43.12 54.83 42.87 54.95 42.83 54.86 43.66 54.48 43.69 54.56 43.45 54.67 44.39 56.69 44.64 56.58 44.68 56.66 43.85 57.05 43.81 56.97 44.06 56.85 43.59 55.85 42.65 56.29 43.12 57.29 43.37 57.18 43.41 57.26 42.58 57.64" fill="#fff"></polygon>
        <polygon points="45.08 56.44 45.04 56.36 45.27 56.23 44.14 54.31 43.91 54.44 43.86 54.36 44.47 54.01 46.23 54.97 45.4 53.56 45.17 53.7 45.12 53.62 45.7 53.28 45.74 53.36 45.5 53.5 46.71 55.56 46.63 55.6 44.26 54.28 45.37 56.17 45.61 56.03 45.65 56.11 45.08 56.44" fill="#fff"></polygon>
        <path d="m48.2,54.54c-.13.09-.27.15-.4.18-.13.02-.28,0-.44-.04-.14-.04-.28-.11-.41-.21-.13-.1-.25-.22-.34-.35-.1-.13-.17-.27-.21-.42-.04-.14-.06-.29-.05-.44.01-.17.05-.32.11-.44.06-.13.16-.23.28-.32.12-.08.24-.14.37-.16.13-.02.27-.02.42.02.16.04.3.1.44.2.13.09.25.21.36.35.1.14.17.29.22.44.05.16.07.31.06.46,0,.16-.04.3-.11.41-.06.12-.16.22-.29.31m-1.41-1.97c-.19.14-.27.31-.23.52.03.21.2.52.49.92.2.28.39.45.57.53.18.08.36.05.53-.07.17-.12.25-.28.24-.48-.01-.2-.12-.44-.32-.72-.29-.41-.53-.66-.72-.76-.18-.1-.37-.08-.56.06Z" fill="#fff"></path>
        <path d="m49.34,53.62l-.06-.07.23-.2-1.45-1.7-.22.19-.06-.07.75-.64.06.07-.25.22,1.45,1.7.38-.32c.14-.12.21-.24.23-.36.01-.12-.03-.28-.14-.49l.05-.05.41.54-1.38,1.17Z" fill="#fff"></path>
        <path d="m51.78,51.49c-.11.12-.24.19-.37.24-.13.04-.28.06-.44.03-.15-.02-.29-.06-.44-.14-.14-.07-.28-.17-.4-.29-.12-.12-.21-.24-.28-.38-.07-.13-.11-.28-.12-.42-.02-.17,0-.32.04-.46.04-.13.12-.25.22-.36.1-.1.21-.17.34-.22.12-.04.26-.06.42-.05.16.01.31.05.46.12.15.07.28.17.41.29.12.12.22.25.29.4.07.15.12.3.13.45.02.16,0,.3-.04.42-.04.13-.12.24-.23.35m-1.71-1.71c-.16.16-.21.35-.14.55.07.2.28.48.63.83.24.24.46.38.65.43.19.05.36,0,.51-.16.15-.15.2-.32.15-.51-.05-.19-.19-.41-.43-.65-.36-.36-.63-.57-.83-.63-.2-.07-.38-.02-.54.15Z" fill="#fff"></path>
        <path d="m52.95,48.84l.62-.74.07.06-.14.17c.2.17.31.36.31.58,0,.22-.09.44-.28.67-.2.25-.45.37-.75.37-.3,0-.59-.11-.87-.35-.14-.11-.25-.24-.33-.38-.08-.14-.14-.29-.17-.45-.03-.16-.02-.3.01-.44.04-.14.1-.26.2-.38.07-.09.15-.16.25-.21.09-.06.19-.09.29-.12v-.19s.02-.04.02-.04l.47.39-.05.06c-.17-.09-.34-.12-.49-.09-.16.03-.29.11-.4.24-.15.18-.19.38-.11.59.08.21.28.45.6.71.31.26.56.41.76.44.2.04.37-.03.51-.2.12-.15.18-.29.15-.42-.02-.13-.12-.27-.3-.42l-.06-.05-.22.26-.07-.06Z" fill="#fff"></path>
        <polygon points="54.37 48.42 54.3 48.37 54.48 48.12 52.67 46.81 52.49 47.06 52.42 47.01 53 46.21 53.07 46.26 52.89 46.52 54.7 47.83 54.88 47.57 54.95 47.63 54.37 48.42" fill="#fff"></polygon>
        <path d="m55.18,47.31l-.08-.05.15-.23-1.89-1.19-.15.23-.08-.05.96-1.52.49.31-.04.07c-.17-.07-.31-.09-.41-.06-.11.04-.22.14-.33.33l-.24.38.86.55.04-.06c.08-.13.12-.24.11-.33-.01-.09-.08-.17-.19-.26l.04-.06.77.48-.04.07c-.14-.08-.26-.1-.35-.08-.09.03-.19.12-.28.27v.02s.93.6.93.6l.27-.43c.11-.17.15-.32.13-.44-.02-.12-.12-.27-.28-.43l.04-.07.56.4-.98,1.56Z" fill="#fff"></path>
        <path d="m57.87,42.31l-.09-.03.11-.28-2.07-.82s-.01.03-.02.04c0,.02-.02.04-.03.07-.06.16-.07.29-.02.4.05.11.17.23.37.36l-.03.07-.64-.29.69-1.73.66.23-.03.07c-.22-.05-.39-.05-.5,0-.12.05-.21.16-.28.33-.01.03-.02.05-.02.06,0,.01,0,.03-.01.04l2.07.82.11-.28.08.03-.36.9Z" fill="#fff"></path>
        <path d="m56.14,39.38l-.48-.58.06-.2.72-.21-.03.1-.48.29.24.51-.03.1Zm2.35,1.38l-.09-.03.08-.27-2.04-1.49.03-.09,2.5-.04.07-.24.09.03-.27.88-.09-.03.09-.28h-.81s-.2.67-.2.67l.67.47.09-.29.09.03-.21.68Zm-.73-.95l.19-.6h-1.02s.83.6.83.6Z" fill="#fff"></path>
        <path d="m59.13,38.29l.06-.28-2.18-.46-.06.27-.09-.02.21-1c.06-.26.14-.46.27-.58.12-.12.26-.17.43-.13.16.04.28.13.35.28.07.15.09.34.05.56h.03c.07-.16.16-.29.27-.37.11-.09.24-.13.37-.12.07,0,.17.02.3.04.13.02.22.03.27.02.05,0,.08-.02.11-.05.03-.02.04-.06.05-.11,0-.03,0-.06,0-.09,0-.03,0-.07-.01-.1l.09.02c.01.06.02.12.02.18,0,.06,0,.11-.01.16-.03.15-.11.25-.24.3-.13.05-.32.05-.58.01,0,0-.01,0-.02,0-.19-.03-.32-.02-.41.03-.06.04-.12.09-.16.15-.04.06-.07.14-.09.22l-.04.21,1.15.24.06-.27.09.02-.19.9-.09-.02Zm-1.11-.89l.04-.21c.05-.24.05-.41,0-.51-.05-.1-.17-.17-.36-.2-.17-.04-.3-.03-.38.03-.08.05-.14.18-.18.39l-.07.31.94.2Z" fill="#fff"></path>
        <path d="m59.04,34.42l.12-.96h.09s-.03.23-.03.23c.26.03.45.14.58.31.12.18.17.42.13.71-.04.32-.18.56-.42.72-.25.16-.55.22-.93.18-.18-.02-.34-.07-.48-.14-.15-.07-.28-.17-.39-.29-.11-.12-.19-.24-.23-.38-.05-.14-.06-.28-.04-.42.01-.11.04-.22.09-.31.05-.1.11-.18.18-.26l-.11-.15v-.05s.61.07.61.07v.08c-.2.02-.35.09-.47.19-.12.11-.19.25-.21.42-.03.24.05.42.22.55s.47.22.89.27c.4.05.69.03.88-.04.18-.08.29-.23.32-.45.02-.19,0-.34-.1-.43-.09-.1-.25-.16-.48-.19h-.08s-.04.33-.04.33h-.09Z" fill="#fff"></path>
        <path d="m59.43,32.92l-1.71-.05v.28s-.1,0-.1,0l.03-.91h.09s0,.28,0,.28l1.69.05c.19,0,.33-.03.43-.12.1-.08.15-.21.16-.38,0-.19-.05-.34-.17-.45-.12-.1-.29-.16-.52-.17l-1.55-.05v.28s-.1,0-.1,0l.02-.66h.09s0,.28,0,.28l1.56.05c.28,0,.48.08.61.22.13.14.19.34.18.61,0,.23-.07.42-.2.55-.12.13-.29.19-.5.19" fill="#fff"></path>
        <polygon points="60.05 29.64 59.96 29.65 59.93 29.38 57.72 29.61 57.74 29.87 57.65 29.88 57.58 29.16 59.3 28.47 57.47 28.11 57.4 27.4 57.49 27.39 57.52 27.68 59.74 27.45 59.71 27.17 59.8 27.16 59.89 28.05 59.8 28.06 59.77 27.79 57.59 28.02 57.59 28.03 59.94 28.49 59.95 28.58 57.73 29.46 57.74 29.49 59.92 29.27 59.9 29 59.99 28.99 60.05 29.64" fill="#fff"></polygon>
        <path d="m59.07,26.53l-1.68.34.06.28-.09.02-.18-.89.09-.02.06.27,1.66-.33c.18-.04.31-.11.39-.21.08-.1.1-.24.07-.4-.04-.19-.13-.32-.26-.4-.14-.07-.32-.09-.55-.04l-1.52.31.05.27-.09.02-.13-.65.09-.02.05.27,1.53-.31c.27-.05.49-.03.65.07.16.1.26.29.32.56.05.23.02.42-.07.58-.09.16-.24.25-.44.3" fill="#fff"></path>
        <path d="m59.11,24.2l-.08-.28-2.14.64.08.26-.09.03-.29-.98c-.08-.26-.09-.47-.04-.64.05-.17.15-.27.31-.32.16-.05.31-.02.44.07.14.1.24.25.32.47h.03c-.02-.19,0-.34.05-.47.06-.13.15-.23.27-.28.06-.03.16-.07.28-.11.13-.04.21-.08.25-.11.04-.03.06-.06.07-.09.01-.03,0-.07,0-.12,0-.03-.02-.06-.04-.08-.02-.03-.04-.05-.06-.08l.09-.03c.04.05.08.1.1.15.03.05.05.1.06.15.04.15.02.27-.07.38-.09.11-.26.2-.51.29,0,0-.01,0-.02,0-.18.06-.29.13-.34.22-.04.06-.06.13-.07.21,0,.08,0,.15.02.23l.06.2,1.12-.33-.08-.27.09-.03.26.88-.09.03Zm-1.4-.25l-.06-.2c-.07-.24-.15-.39-.25-.45-.09-.06-.23-.06-.41,0-.17.05-.28.12-.32.2-.04.09-.04.23.02.43l.09.3.92-.27Z" fill="#fff"></path>
        <path d="m58.44,21.71l-.08.03-.1-.25-2.08.82.1.25-.09.03-.66-1.67.54-.21.03.07c-.16.09-.26.19-.29.3-.03.11-.01.26.07.46l.17.42.95-.37-.03-.07c-.06-.15-.13-.24-.2-.28-.08-.04-.18-.04-.32,0l-.03-.07.84-.33.03.07c-.15.07-.24.15-.27.24-.03.09-.02.22.05.39v.02s1.05-.41,1.05-.41l-.19-.48c-.07-.19-.17-.31-.28-.36-.11-.06-.28-.06-.51-.02l-.03-.08.65-.22.68,1.71Z" fill="#fff"></path>
        <path d="m57.54,19.48l.03.06-.57.28-.03-.06c.14-.13.22-.27.26-.43.04-.16.02-.3-.04-.44-.08-.16-.19-.26-.34-.32-.15-.06-.3-.06-.44.01-.17.08-.22.31-.16.68,0,.03,0,.05.01.07.05.32.05.55,0,.69-.05.14-.15.24-.31.32-.18.09-.35.1-.52.04-.17-.06-.3-.19-.39-.38-.07-.14-.09-.29-.07-.45,0-.03,0-.05,0-.05,0,0,0-.01-.01-.01,0,0-.01,0-.02,0l-.11-.03-.03-.07.5-.24.03.06c-.13.13-.21.26-.24.39-.03.13-.01.27.06.4.06.12.15.21.26.26.12.05.23.05.33,0,.09-.04.14-.11.17-.2.02-.09.02-.22-.01-.39,0-.02-.01-.06-.02-.11-.05-.28-.07-.48-.05-.59.02-.1.06-.18.13-.26.06-.08.15-.14.25-.19.22-.11.44-.13.63-.06.2.07.35.22.46.44.08.16.1.32.08.5,0,.03,0,.04,0,.05,0,0,0,0,.01.01,0,0,.01,0,.02,0l.15.05Zm.5-.48h-.15c0-.08,0-.16,0-.23-.01-.07-.03-.13-.05-.18-.03-.07-.07-.11-.11-.13-.04-.02-.08-.02-.14,0-.04.02-.07.05-.08.1,0,.04,0,.1.03.15,0,.01.02.03.03.05.01.02.02.03.03.05l-.31.15-.05-.1.18-.09s-.02-.03-.03-.05c0-.02-.02-.03-.03-.05-.05-.09-.06-.18-.04-.25.02-.07.07-.13.16-.17.09-.04.17-.04.25,0,.08.04.15.11.2.22.03.06.05.13.07.21.02.08.03.19.04.32Z" fill="#fff"></path>
        <path d="m14.01,42.59l.49.8-.08.05-.11-.18c-.22.13-.43.17-.63.11-.2-.06-.38-.22-.53-.47-.16-.27-.2-.54-.11-.81.09-.27.29-.5.6-.69.15-.09.3-.15.46-.18.16-.03.31-.04.47-.01.15.02.29.07.41.15.12.08.21.18.29.3.06.09.1.19.12.29.02.1.03.2.02.31l.18.05.03.04-.51.31-.04-.06c.13-.13.21-.27.24-.43.03-.15,0-.3-.09-.45-.12-.2-.29-.29-.5-.29-.22,0-.5.11-.85.32-.34.2-.55.39-.65.56-.1.17-.09.35.03.53.1.16.21.25.34.27.13.02.29-.03.48-.15l.07-.04-.17-.29.08-.05Z" fill="#fff"></path>
        <path d="m14.28,44.51l.07-.06.17.21,1.69-1.37-.17-.21.07-.06,1.1,1.36-.44.36-.05-.06c.12-.13.18-.26.18-.36s-.07-.25-.2-.41l-.28-.34-.77.63.05.06c.1.12.19.19.27.2.08.01.18-.02.3-.09l.05.06-.69.56-.05-.06c.12-.11.18-.21.18-.3,0-.1-.05-.21-.16-.34v-.02s-.86.69-.86.69l.31.39c.12.15.25.24.37.25.12.02.28-.02.48-.13l.05.06-.54.39-1.13-1.4Z" fill="#fff"></path>
        <path d="m16.8,47.4c-.12-.11-.2-.23-.24-.35-.05-.12-.06-.27-.05-.43.01-.14.06-.29.12-.43.07-.14.16-.27.27-.4.11-.12.23-.21.36-.28.13-.07.26-.11.41-.13.17-.02.31-.01.45.02.13.04.25.11.36.21.1.1.18.2.22.32.05.12.07.26.06.41,0,.16-.04.31-.11.45-.06.15-.16.28-.27.41-.11.12-.24.22-.38.3-.14.08-.29.12-.43.14-.15.02-.29.01-.41-.03-.12-.04-.24-.11-.35-.22m1.62-1.72c-.16-.15-.34-.2-.54-.13-.19.07-.46.28-.79.64-.23.24-.36.46-.4.65-.04.19.02.35.17.5.15.14.32.19.5.14.19-.05.39-.2.62-.44.34-.36.53-.63.59-.83.06-.19,0-.37-.16-.52Z" fill="#fff"></path>
        <path d="m18.37,48.59l.23.16,1.26-1.77-.22-.15.05-.07.81.58c.21.15.35.31.42.46.06.16.05.3-.05.44-.09.13-.22.2-.38.21-.16,0-.34-.05-.52-.17l-.02.02c.12.12.2.25.24.39.04.14.02.26-.03.38-.03.06-.08.15-.15.25-.07.11-.11.18-.13.23-.01.04-.01.08,0,.11.01.03.04.06.08.09.02.02.05.03.08.04.03.01.06.02.1.03l-.05.07c-.06-.01-.12-.03-.17-.05-.05-.02-.1-.05-.14-.07-.12-.09-.18-.2-.17-.33,0-.14.08-.31.22-.52,0,0,0-.01.01-.02.1-.15.14-.28.13-.38,0-.07-.03-.14-.07-.2-.04-.06-.09-.12-.16-.16l-.17-.12-.66.93.22.16-.05.07-.73-.52.05-.07Zm1.23-.65l.17.12c.2.14.35.2.46.19.11,0,.22-.09.32-.24.1-.14.14-.26.12-.35-.02-.09-.11-.2-.28-.31l-.25-.18-.54.77Z" fill="#fff"></path>
        <path d="m22.29,50.18l.83.43-.04.08-.19-.1c-.12.23-.28.37-.48.42-.2.05-.44,0-.7-.13-.28-.14-.45-.35-.51-.63-.07-.28-.01-.58.15-.91.08-.15.18-.28.29-.39.12-.11.25-.19.39-.25.14-.06.29-.09.42-.08.14,0,.27.04.4.11.1.05.18.11.26.19.07.07.13.16.17.25l.17-.05.04.02-.27.53-.07-.03c.05-.18.04-.34-.02-.49-.06-.14-.16-.25-.31-.33-.21-.11-.4-.1-.58.02-.18.12-.37.36-.55.72-.18.35-.27.62-.26.82,0,.19.11.34.3.44.17.09.31.11.43.06.12-.05.23-.17.33-.37l.04-.07-.3-.15.04-.08Z" fill="#fff"></path>
        <path d="m23.51,51.67l.03-.08.25.09.73-2.05-.25-.09.03-.08,1.64.59-.19.53-.07-.03c.04-.18.02-.31-.03-.41-.06-.09-.18-.18-.38-.25l-.41-.15-.34.94.07.02c.14.05.25.06.33.03.08-.03.15-.11.2-.23l.07.02-.3.83-.07-.03c.05-.15.04-.27,0-.35-.05-.08-.15-.15-.32-.21h-.02s-.37,1.02-.37,1.02l.47.17c.18.07.33.07.45.03.11-.05.23-.17.35-.36l.07.03-.26.62-1.69-.6Z" fill="#fff"></path>
        <path d="m27.6,52.88v-.09s.28.04.28.04l.31-2.15-.26-.04v-.09s1.74.25,1.74.25l-.08.56h-.07c0-.19-.04-.32-.11-.4-.07-.08-.22-.14-.42-.17l-.44-.06-.14.99h.07c.15.03.26.02.33-.03.07-.05.12-.14.15-.27h.07s-.13.89-.13.89h-.07c.01-.17,0-.28-.07-.35-.06-.07-.18-.12-.35-.15h-.02s-.16,1.08-.16,1.08l.49.07c.19.03.34,0,.44-.06.1-.07.19-.21.27-.42h.08s-.13.67-.13.67l-1.78-.26Z" fill="#fff"></path>
        <polygon points="30.41 53.23 30.41 53.14 30.66 53.14 30.66 50.97 30.4 50.97 30.4 50.88 31.11 50.88 31.61 52.62 32.14 50.88 32.83 50.88 32.83 50.96 32.55 50.97 32.56 53.14 32.83 53.14 32.83 53.23 31.96 53.23 31.96 53.14 32.22 53.14 32.22 51 32.2 51 31.53 53.23 31.44 53.23 30.8 51 30.77 51 30.78 53.14 31.04 53.14 31.04 53.23 30.41 53.23" fill="#fff"></polygon>
        <polygon points="33.73 53.13 33.72 53.04 34.01 53.01 33.75 50.85 33.45 50.88 33.44 50.79 34.4 50.68 34.41 50.77 34.1 50.8 34.37 52.96 34.67 52.92 34.68 53.01 33.73 53.13" fill="#fff"></polygon>
        <path d="m35.49,52.89l-.02-.09.29-.06-.47-2.12-.27.06-.02-.09.94-.21.02.09-.32.07.47,2.12.47-.11c.17-.04.29-.11.36-.2.07-.1.1-.26.1-.49h.07s.11.64.11.64l-1.72.39Z" fill="#fff"></path>
        <path d="m39.42,51.78l-.04-.08.24-.1-.86-2-.24.1-.04-.08.75-.32c.3-.13.54-.18.73-.15.19.03.32.14.4.33.09.2.07.39-.04.57-.11.18-.32.33-.63.46l-.13.06.39.89.26-.11.04.08-.82.35Zm.1-1.3l.14-.06c.22-.09.35-.2.4-.32.05-.12.04-.28-.05-.48-.08-.19-.17-.3-.28-.33-.1-.03-.28,0-.51.1l-.15.07.44,1.02Z" fill="#fff"></path>
        <path d="m41.45,50.89l-.04-.08.24-.14-.47-2.41.08-.04,1.81,1.64.21-.12.04.08-.78.45-.04-.08.25-.15-.58-.54-.59.34.16.78.26-.15.04.08-.6.35Zm.11-1.16l.53-.31-.73-.67.2.98Z" fill="#fff"></path>
        <path d="m43.97,49.36l-.05-.07.23-.18-1.32-1.73-.22.17-.05-.07.77-.58.05.07-.26.2,1.32,1.73.39-.29c.14-.11.22-.22.24-.34.02-.12-.02-.28-.11-.49l.05-.04.37.55-1.4,1.07Z" fill="#fff"></path>
        <path d="m45.95,47.81l-.06-.06.2-.2-1.06-2.22.06-.06,2.16,1.13.18-.17.06.06-.64.63-.06-.06.21-.2-.7-.37-.48.48.35.71.21-.21.06.06-.49.49Zm-.18-1.15l.44-.43-.87-.46.44.9Z" fill="#fff"></path>
        <path d="m48.14,45.39l-1.72-1.33-.16.21-.07-.05.53-.68c.23-.3.49-.47.77-.51.28-.04.57.05.86.28.17.13.3.28.39.44.09.16.14.34.14.53,0,.11-.02.21-.07.32-.04.11-.11.22-.21.35l-.55.71-.07-.05.16-.21Zm-1.5-1.61l1.72,1.33.16-.2c.07-.09.13-.19.16-.27.03-.09.05-.17.05-.25,0-.11-.05-.22-.12-.32-.07-.1-.24-.25-.49-.44-.22-.17-.39-.28-.51-.33-.11-.05-.22-.07-.32-.06-.09.01-.17.05-.26.1-.08.06-.17.14-.26.26l-.14.18Z" fill="#fff"></path>
        <path d="m49.82,43.24l-.08-.04.13-.23-1.88-1.09-.13.23-.08-.04.87-1.51.49.28-.04.07c-.17-.07-.3-.08-.41-.04-.1.04-.2.15-.31.33l-.22.38.86.5.04-.06c.08-.13.11-.24.09-.32-.02-.08-.08-.16-.19-.24l.04-.06.77.44-.04.06c-.14-.07-.26-.09-.35-.06-.09.03-.18.12-.27.27v.02s.93.54.93.54l.25-.43c.1-.17.13-.31.11-.43-.03-.12-.12-.26-.29-.41l.04-.07.56.37-.9,1.56Z" fill="#fff"></path>
        <path d="m10.35,14.71c.13-.14.24-.28.35-.41.11-.13.23-.27.36-.42l.29.25c-.13.14-.24.28-.35.41-.11.13-.22.27-.36.42l-.29-.25Z" fill="#fff"></path>
        <path d="m52.5,15.02c-.11-.16-.22-.3-.32-.43-.1-.14-.21-.28-.33-.45l.31-.22c.11.16.22.3.32.43.1.14.21.28.33.44l-.31.22Z" fill="#fff"></path>
        <path d="m55.63,44.16c.08-.17.15-.34.21-.49.07-.16.14-.33.22-.51l.35.16c-.08.17-.15.34-.22.49-.07.16-.14.32-.22.51l-.35-.16Z" fill="#fff"></path>
        <path d="m7.29,38.6v.03c-.07.09-.12.18-.14.28-.02.1,0,.22.05.37.05.15.1.25.17.32.07.07.16.12.28.14v.03c-.16-.03-.3-.08-.41-.16-.11-.08-.18-.17-.22-.29-.04-.11-.03-.23.01-.36.05-.12.13-.25.26-.37" fill="#fff"></path>
        <path d="m29.61,59.86s-.04,0-.05,0c-.02,0-.04,0-.06,0v-.16s.02,0,.02,0h-.14v.3s.04,0,.06,0c.02,0,.04,0,.06,0,.06,0,.12.01.15.04.04.03.05.07.05.12,0,.06-.02.1-.05.13-.04.03-.09.04-.17.04-.06,0-.12-.01-.19-.03-.07-.02-.14-.06-.22-.1l-.06.14c.13.05.23.09.31.11.08.02.16.03.22.03.12,0,.22-.03.29-.09.07-.06.11-.14.11-.24,0-.09-.03-.17-.09-.22-.06-.05-.14-.08-.25-.08" fill="#fff"></path>
      </g>
      <g>
        <path d="m174.41,59.59c.63-.04,1.32-.35,1.32-1.11,0-.34-.19-.61-.4-.75l-.68.14c.18.14.36.38.36.61,0,.41-.38.6-.77.68l.16.42Zm-1.46-2.61c.37.25,1.1.44,1.76.44,1.63,0,2.42-.92,2.42-1.99s-.59-1.58-1.76-2.03c-.95-.37-1.37-.69-1.37-1.33,0-.47.36-1.03,1.3-1.03.62,0,1.09.2,1.31.33l.25-.73c-.31-.17-.82-.34-1.53-.34-1.34,0-2.23.8-2.23,1.87,0,.97.7,1.56,1.82,1.96.93.36,1.3.73,1.3,1.37,0,.7-.53,1.18-1.44,1.18-.61,0-1.2-.2-1.6-.45l-.23.75Zm-3.4-3.63h-2.68v-2.18h2.84v-.75h-3.73v6.9h3.88v-.75h-2.99v-2.49h2.68v-.74Zm-10.47-2.21c.14-.04.45-.08.88-.08.94.01,1.59.4,1.59,1.29,0,.79-.6,1.31-1.56,1.31h-.91v-2.52Zm-.89,6.18h.89v-2.99h.84c.81.03,1.18.39,1.38,1.34.19.86.35,1.45.46,1.65h.92c-.14-.27-.31-.93-.53-1.89-.16-.72-.48-1.21-1.01-1.39v-.03c.73-.25,1.3-.85,1.3-1.76,0-.53-.19-1-.54-1.31-.43-.39-1.04-.56-2-.56-.61,0-1.26.05-1.71.14v6.81Zm-8.92-6.9v4.06c0,2.14,1.06,2.95,2.48,2.95,1.49,0,2.61-.87,2.61-2.99v-4.02h-.9v4.08c0,1.53-.66,2.2-1.68,2.2-.92,0-1.61-.66-1.61-2.2v-4.08h-.9Zm-4.52,6.9h.87l-.43-6.9h-1.14l-1.23,3.34c-.31.87-.55,1.63-.73,2.32h-.03c-.17-.72-.41-1.47-.7-2.32l-1.18-3.34h-1.14l-.48,6.9h.85l.18-2.96c.06-1.03.11-2.19.13-3.05h.02c.19.82.47,1.71.8,2.68l1.12,3.29h.68l1.22-3.35c.35-.95.63-1.81.87-2.62h.03c-.01.86.05,2.02.1,2.98l.17,3.03Zm-17.08-6.9v4.06c0,2.14,1.06,2.95,2.48,2.95,1.49,0,2.61-.87,2.61-2.99v-4.02h-.9v4.08c0,1.53-.66,2.2-1.68,2.2-.92,0-1.61-.66-1.61-2.2v-4.08h-.9Zm-3.64,3.28h-2.27v.72h1.4v2.06c-.2.1-.6.18-1.19.18-1.61,0-2.66-1.03-2.66-2.78s1.1-2.77,2.77-2.77c.7,0,1.16.13,1.53.3l.21-.73c-.3-.14-.92-.32-1.72-.32-2.31,0-3.73,1.5-3.74,3.56,0,1.07.37,2,.96,2.57.68.64,1.54.91,2.58.91.93,0,1.72-.24,2.12-.38v-3.32Zm-12.18-2.56c.14-.04.45-.08.88-.08.94.01,1.59.4,1.59,1.29,0,.79-.6,1.31-1.56,1.31h-.91v-2.52Zm-.89,6.18h.89v-2.99h.84c.81.03,1.18.39,1.38,1.34.19.86.35,1.45.46,1.65h.92c-.14-.27-.31-.93-.53-1.89-.16-.72-.48-1.21-1.01-1.39v-.03c.73-.25,1.3-.85,1.3-1.76,0-.53-.19-1-.54-1.31-.43-.39-1.04-.56-2-.56-.61,0-1.26.05-1.71.14v6.81Zm-6.5-8.43l-1.04,1.17h.73l.66-.71h.02l.66.71h.75l-1.07-1.17h-.69Zm-.75,5.57l.68-2c.13-.42.25-.84.35-1.25h.02c.1.4.2.81.36,1.26l.68,1.99h-2.08Zm2.26.7l.74,2.17h.95l-2.35-6.9h-1.07l-2.34,6.9h.92l.72-2.17h2.45Zm-9.63,2.17h.9v-6.14h2.11v-.76h-5.11v.76h2.1v6.14Zm-11.24,0v-2.95c0-1.15-.02-1.98-.07-2.85h.03c.35.74.81,1.53,1.29,2.29l2.19,3.5h.9v-6.9h-.84v2.89c0,1.07.02,1.91.1,2.84h-.02c-.33-.7-.73-1.42-1.24-2.23l-2.21-3.49h-.97v6.9h.84Zm-5.57-6.9v6.9h.89v-6.9h-.89Zm-8.21.75c.24-.05.58-.09,1.04-.09,1.88,0,2.8,1.03,2.79,2.66,0,1.86-1.03,2.93-2.94,2.93-.35,0-.68-.01-.9-.05v-5.45Zm-.89,6.13c.45.05.98.08,1.62.08,1.34,0,2.41-.35,3.05-.99.64-.63.99-1.56.99-2.68s-.36-1.91-.97-2.48c-.6-.56-1.52-.86-2.79-.86-.71,0-1.35.06-1.89.14v6.79Zm139.15-22.08c-.11.74-.38,1.8-.6,2.41l.57-.07c.28-.47.72-1.57.95-2.43l-.92.09Zm-1.52,0c-.11.74-.39,1.8-.6,2.41l.57-.07c.28-.47.72-1.57.95-2.43l-.92.09Zm-3.82,2.95h-2.68v-2.18h2.84v-.75h-3.73v6.9h3.88v-.75h-2.99v-2.49h2.68v-.74Zm-11.78-2.18c.24-.05.58-.09,1.04-.09,1.88,0,2.8,1.03,2.79,2.66,0,1.86-1.03,2.93-2.94,2.93-.35,0-.68-.01-.9-.05v-5.45Zm-.89,6.13c.45.05.98.08,1.62.08,1.34,0,2.41-.35,3.05-.99.64-.63.99-1.56.99-2.68s-.36-1.91-.97-2.48c-.6-.56-1.52-.86-2.79-.86-.71,0-1.35.06-1.89.14v6.79Zm-7.25-2.85l.68-2c.13-.42.25-.84.35-1.25h.02c.1.4.2.81.36,1.26l.68,1.99h-2.08Zm2.26.7l.74,2.17h.95l-2.35-6.9h-1.07l-2.34,6.9h.92l.72-2.17h2.45Zm-10.68,2.17h3.84v-.75h-2.95v-6.15h-.89v6.9Zm-7.25-2.87l.68-2c.13-.42.25-.84.35-1.25h.02c.1.4.2.81.36,1.26l.68,1.99h-2.08Zm2.26.7l.74,2.17h.95l-2.35-6.9h-1.07l-2.34,6.9h.92l.72-2.17h2.45Zm-9.54-4c.15-.04.45-.07.84-.07.98,0,1.63.44,1.63,1.35s-.66,1.47-1.73,1.47c-.3,0-.54-.02-.74-.07v-2.68Zm-.89,6.17h.89v-2.76c.21.05.45.06.72.06.87,0,1.64-.26,2.11-.76.35-.36.53-.85.53-1.47s-.23-1.12-.6-1.44c-.41-.37-1.05-.57-1.93-.57-.72,0-1.28.06-1.71.13v6.82Zm-9.29,0h3.84v-.75h-2.95v-6.15h-.89v6.9Zm-4.73-6.9v6.9h.89v-6.9h-.89Zm-4.53,6.9h.87l-.43-6.9h-1.14l-1.23,3.34c-.31.87-.55,1.63-.73,2.32h-.03c-.17-.72-.41-1.47-.7-2.32l-1.18-3.34h-1.14l-.48,6.9h.85l.18-2.96c.06-1.03.11-2.19.13-3.05h.02c.19.82.47,1.71.8,2.68l1.12,3.29h.68l1.22-3.35c.35-.95.63-1.81.87-2.62h.03c-.01.86.05,2.02.1,2.98l.17,3.03Zm-9.74-3.97h-2.68v-2.18h2.84v-.75h-3.73v6.9h3.88v-.75h-2.99v-2.49h2.68v-.74Zm-9.49,0h-2.68v-2.18h2.84v-.75h-3.73v6.9h3.88v-.75h-2.99v-2.49h2.68v-.74Zm-7.22.35h-2.27v.72h1.4v2.06c-.2.1-.6.18-1.19.18-1.61,0-2.66-1.03-2.66-2.78s1.1-2.77,2.77-2.77c.7,0,1.16.13,1.53.3l.21-.73c-.3-.14-.92-.32-1.72-.32-2.31,0-3.73,1.5-3.74,3.56,0,1.07.37,2,.96,2.57.68.64,1.54.91,2.58.91.93,0,1.72-.24,2.12-.38v-3.32Zm-12.18-2.56c.14-.04.45-.08.88-.08.94.01,1.59.4,1.59,1.29,0,.79-.6,1.31-1.56,1.31h-.91v-2.52Zm-.89,6.18h.89v-2.99h.84c.81.03,1.18.39,1.38,1.34.19.86.35,1.45.46,1.65h.92c-.14-.27-.31-.93-.53-1.89-.16-.72-.48-1.21-1.01-1.39v-.03c.73-.25,1.3-.85,1.3-1.76,0-.53-.19-1-.54-1.31-.43-.39-1.04-.56-2-.56-.61,0-1.26.05-1.71.14v6.81Zm-6.58-6.28c1.48,0,2.2,1.43,2.2,2.8,0,1.57-.8,2.87-2.21,2.87s-2.2-1.32-2.2-2.79.74-2.88,2.21-2.88Zm.04-.73c-1.84,0-3.2,1.43-3.2,3.62s1.28,3.5,3.1,3.5,3.2-1.26,3.2-3.63c0-2.05-1.22-3.49-3.1-3.49Zm-6.54,3.04h-2.68v-2.18h2.84v-.75h-3.73v6.9h3.88v-.75h-2.99v-2.49h2.68v-.74Zm-7.22.35h-2.27v.72h1.4v2.06c-.2.1-.6.18-1.19.18-1.61,0-2.66-1.03-2.66-2.78s1.1-2.77,2.77-2.77c.7,0,1.16.13,1.53.3l.21-.73c-.3-.14-.92-.32-1.72-.32-2.31,0-3.73,1.5-3.74,3.56,0,1.07.37,2,.96,2.57.68.64,1.54.91,2.58.91.93,0,1.72-.24,2.12-.38v-3.32Zm195.7-15.53h-2.68v-2.18h2.84v-.75h-3.73v6.9h3.88v-.75h-2.99v-2.49h2.68v-.74Zm-8.3-2.93v6.9h.89v-6.9h-.89Zm-3.65,3.28h-2.27v.72h1.4v2.06c-.2.1-.6.18-1.19.18-1.61,0-2.66-1.03-2.66-2.78s1.1-2.77,2.77-2.77c.7,0,1.16.13,1.53.3l.21-.73c-.3-.14-.92-.32-1.72-.32-2.31,0-3.73,1.5-3.74,3.56,0,1.07.37,2,.96,2.57.68.64,1.54.91,2.58.91.93,0,1.72-.24,2.12-.38v-3.32Zm-11.84-2.66c1.48,0,2.2,1.43,2.2,2.8,0,1.57-.8,2.87-2.21,2.87s-2.2-1.32-2.2-2.79.74-2.88,2.21-2.88Zm.04-.73c-1.84,0-3.2,1.43-3.2,3.62s1.28,3.5,3.1,3.5,3.2-1.26,3.2-3.63c0-2.05-1.22-3.49-3.1-3.49Zm-9.51,7.01h3.84v-.75h-2.95v-6.15h-.89v6.9Zm-6.58-6.28c1.48,0,2.2,1.43,2.2,2.8,0,1.57-.8,2.87-2.21,2.87s-2.2-1.32-2.2-2.79.74-2.88,2.21-2.88Zm.04-.73c-1.84,0-3.2,1.43-3.2,3.62s1.28,3.5,3.1,3.5,3.2-1.26,3.2-3.63c0-2.05-1.22-3.49-3.1-3.49Zm-10.98,7.01v-2.95c0-1.15-.02-1.98-.07-2.85h.03c.35.74.81,1.53,1.29,2.29l2.19,3.5h.9v-6.9h-.84v2.89c0,1.07.02,1.91.1,2.84h-.02c-.33-.7-.73-1.42-1.24-2.23l-2.21-3.49h-.97v6.9h.84Zm-9.8-6.9v6.9h.89v-3.23h3.34v3.23h.9v-6.9h-.9v2.89h-3.34v-2.89h-.89Zm-3.75,2.93h-2.68v-2.18h2.84v-.75h-3.73v6.9h3.88v-.75h-2.99v-2.49h2.68v-.74Zm-9.64,3.97h.9v-6.14h2.11v-.76h-5.11v.76h2.1v6.14Zm-7.79-6.9v6.9h.89v-6.9h-.89Zm-6.22,9.17c.63-.04,1.32-.35,1.32-1.11,0-.34-.19-.61-.4-.75l-.68.14c.18.14.36.38.36.61,0,.41-.38.6-.77.68l.16.42Zm-1.46-2.61c.37.25,1.1.44,1.76.44,1.63,0,2.42-.92,2.42-1.99s-.59-1.58-1.76-2.03c-.95-.37-1.37-.69-1.37-1.33,0-.47.36-1.03,1.3-1.03.62,0,1.09.2,1.31.33l.25-.73c-.31-.17-.82-.34-1.53-.34-1.34,0-2.23.8-2.23,1.87,0,.97.7,1.56,1.82,1.96.93.36,1.3.73,1.3,1.37,0,.7-.53,1.18-1.44,1.18-.61,0-1.2-.2-1.6-.45l-.22.75Zm-5.57-3.63h-2.68v-2.18h2.84v-.75h-3.73v6.9h3.88v-.75h-2.99v-2.49h2.68v-.74Zm-8.73,3.97v-6.14h2.11v-.76h-5.11v.76h2.1v6.14h.18l-.47.86c.48.05.8.16.8.44,0,.21-.19.31-.43.31s-.41-.05-.56-.13l-.15.46c.18.1.47.17.73.17.53,0,1.05-.24,1.05-.83,0-.42-.33-.7-.72-.77l.31-.51h.16Zm-10.39,0v-2.95c0-1.15-.02-1.98-.07-2.85h.03c.35.74.81,1.53,1.29,2.29l2.19,3.5h.9v-6.9h-.84v2.89c0,1.07.02,1.91.1,2.84h-.02c-.33-.7-.73-1.42-1.24-2.23l-2.21-3.49h-.97v6.9h.84Zm-5.57-6.9v6.9h.89v-6.9h-.89Zm-4.73,0v6.9h.89v-6.9h-.89Zm-6.06,6.9h.9v-6.14h2.11v-.76h-5.11v.76h2.1v6.14Zm-7.53,2.27c.63-.04,1.32-.35,1.32-1.11,0-.34-.19-.61-.4-.75l-.68.14c.18.14.36.38.36.61,0,.41-.38.6-.77.68l.16.42Zm-1.46-2.61c.37.25,1.1.44,1.76.44,1.63,0,2.42-.92,2.42-1.99s-.59-1.58-1.76-2.03c-.95-.37-1.37-.69-1.37-1.33,0-.47.36-1.03,1.3-1.03.62,0,1.09.2,1.31.33l.25-.73c-.31-.17-.82-.34-1.53-.34-1.34,0-2.23.8-2.23,1.87,0,.97.7,1.56,1.82,1.96.93.36,1.3.73,1.3,1.37,0,.7-.53,1.18-1.44,1.18-.61,0-1.2-.2-1.6-.45l-.23.75Zm-9.73-3.63h-2.68v-2.18h2.84v-.75h-3.73v6.9h3.88v-.75h-2.99v-2.49h2.68v-.74Zm-8.3-2.93v6.9h.89v-6.9h-.89Zm-3.59,5.97c-.36.17-.91.29-1.45.29-1.68,0-2.65-1.09-2.65-2.77,0-1.81,1.07-2.85,2.69-2.85.57,0,1.05.12,1.39.29l.22-.73c-.24-.12-.78-.31-1.64-.31-2.14,0-3.6,1.46-3.6,3.62s1.46,3.49,3.41,3.49c.84,0,1.49-.16,1.82-.33l-.18-.71Zm-11.73-1.93l.68-2c.13-.42.25-.84.35-1.25h.02c.1.4.2.81.36,1.26l.68,1.99h-2.08Zm2.26.7l.74,2.17h.95l-2.35-6.9h-1.07l-2.34,6.9h.92l.72-2.17h2.45Zm-7.99,2.17h.87l-.43-6.9h-1.14l-1.23,3.34c-.31.87-.55,1.63-.73,2.32h-.03c-.17-.72-.41-1.47-.7-2.32l-1.18-3.34h-1.14l-.48,6.9h.85l.18-2.96c.06-1.03.11-2.19.13-3.05h.02c.19.82.47,1.71.8,2.68l1.12,3.29h.68l1.22-3.35c.35-.95.63-1.81.87-2.62h.03c-.01.86.05,2.02.1,2.98l.17,3.03Zm-12.89-6.18c.14-.04.45-.08.88-.08.94.01,1.59.4,1.59,1.29,0,.79-.6,1.31-1.56,1.31h-.91v-2.52Zm-.89,6.18h.89v-2.99h.84c.81.03,1.18.39,1.38,1.34.19.86.35,1.45.46,1.65h.92c-.14-.27-.31-.93-.53-1.89-.16-.72-.48-1.21-1.01-1.39v-.03c.73-.25,1.3-.85,1.3-1.76,0-.53-.19-1-.54-1.31-.43-.39-1.04-.56-2-.56-.61,0-1.26.05-1.71.14v6.81Zm-7.25-2.87l.68-2c.13-.42.25-.84.35-1.25h.02c.1.4.2.81.36,1.26l.68,1.99h-2.08Zm2.26.7l.74,2.17h.95l-2.35-6.9h-1.07l-2.34,6.9h.92l.72-2.17h2.45Zm-10.03,2.17h.89v-3.12h2.61v-.74h-2.61v-2.29h2.83v-.75h-3.72v6.9Zm61.79,1.2c.29-.48.74-1.62.97-2.49l-1,.1c-.11.75-.39,1.84-.61,2.45l.64-.06Zm116.55-15.18c.29-.48.74-1.62.97-2.49l-1,.1c-.11.75-.39,1.84-.61,2.45l.64-.06Zm-7.4-9.56c.02.6.39,1.09,1.26,1.09s1.27-.48,1.28-1.09h-.52c-.05.27-.25.5-.75.5s-.68-.27-.74-.5h-.53Zm.23,5.5l.68-2c.13-.42.25-.84.35-1.25h.02c.1.4.2.81.36,1.26l.68,1.99h-2.08Zm2.26.7l.74,2.17h.95l-2.35-6.9h-1.07l-2.34,6.9h.92l.72-2.17h2.45Zm-11.74,2.17v-2.95c0-1.15-.02-1.98-.07-2.85h.03c.35.74.81,1.53,1.29,2.29l2.19,3.5h.9v-6.9h-.84v2.89c0,1.07.02,1.91.1,2.84h-.02c-.33-.7-.73-1.42-1.24-2.23l-2.21-3.49h-.97v6.9h.84Zm-5.57-6.9v6.9h.89v-6.9h-.89Zm-3.59,5.97c-.36.17-.91.29-1.45.29-1.68,0-2.65-1.09-2.65-2.77,0-1.81,1.07-2.85,2.69-2.85.57,0,1.05.12,1.39.29l.21-.73c-.24-.12-.78-.31-1.64-.31-2.14,0-3.6,1.46-3.6,3.62s1.46,3.49,3.41,3.49c.84,0,1.49-.16,1.82-.33l-.18-.71Zm-9.37-5.97v6.9h.89v-6.9h-.89Zm-8.21.75c.24-.05.58-.09,1.04-.09,1.88,0,2.8,1.03,2.79,2.66,0,1.86-1.03,2.93-2.94,2.93-.35,0-.68-.01-.9-.05v-5.45Zm-.89,6.13c.45.05.98.08,1.62.08,1.34,0,2.41-.35,3.05-.99.64-.63.99-1.56.99-2.68s-.36-1.91-.97-2.48c-.6-.56-1.51-.86-2.79-.86-.71,0-1.35.06-1.89.14v6.79Zm-3.75-3.95h-2.68v-2.18h2.84v-.75h-3.73v6.9h3.88v-.75h-2.99v-2.49h2.68v-.74Zm-8.1,3.97h.87l-.43-6.9h-1.14l-1.23,3.34c-.31.87-.55,1.63-.73,2.32h-.03c-.17-.72-.41-1.47-.7-2.32l-1.18-3.34h-1.14l-.48,6.9h.85l.18-2.96c.06-1.03.11-2.19.13-3.05h.02c.19.82.47,1.71.8,2.68l1.12,3.29h.68l1.22-3.35c.35-.95.63-1.81.87-2.62h.03c-.01.86.05,2.02.1,2.98l.17,3.03Zm-11.91-3.97h-2.68v-2.18h2.84v-.75h-3.73v6.9h3.88v-.75h-2.99v-2.49h2.68v-.74Zm-11.78-2.18c.24-.05.58-.09,1.04-.09,1.88,0,2.8,1.03,2.79,2.66,0,1.86-1.03,2.93-2.94,2.93-.35,0-.68-.01-.9-.05v-5.45Zm-.89,6.13c.45.05.98.08,1.62.08,1.34,0,2.41-.35,3.05-.99.64-.63.99-1.56.99-2.68s-.36-1.91-.97-2.48c-.6-.56-1.51-.86-2.79-.86-.71,0-1.35.06-1.89.14v6.79Zm-9.42-2.85l.68-2c.13-.42.25-.84.35-1.25h.02c.1.4.2.81.36,1.26l.68,1.99h-2.08Zm2.26.7l.74,2.17h.95l-2.35-6.9h-1.07l-2.34,6.9h.92l.72-2.17h2.45Zm-7.31-1.8h-2.68v-2.18h2.84v-.75h-3.73v6.9h3.88v-.75h-2.99v-2.49h2.68v-.74Zm-9.64,3.97h.9v-6.14h2.11v-.76h-5.11v.76h2.1v6.14Zm-7.77-2.87l.68-2c.13-.42.25-.84.35-1.25h.02c.1.4.2.81.36,1.26l.68,1.99h-2.08Zm2.26.7l.74,2.17h.95l-2.35-6.9h-1.07l-2.34,6.9h.92l.72-2.17h2.45Zm-8.86,2.17h.9v-6.14h2.11v-.76h-5.11v.76h2.1v6.14Zm-6.04-6.9v6.9h.89v-6.9h-.89Zm-7.68,6.56c.37.25,1.1.44,1.76.44,1.63,0,2.42-.92,2.42-1.99s-.59-1.58-1.76-2.03c-.95-.37-1.37-.69-1.37-1.33,0-.47.36-1.03,1.3-1.03.62,0,1.09.2,1.31.33l.25-.73c-.31-.17-.82-.34-1.53-.34-1.34,0-2.23.8-2.23,1.87,0,.97.7,1.56,1.82,1.95.93.36,1.3.73,1.3,1.37,0,.7-.53,1.18-1.44,1.18-.61,0-1.2-.2-1.6-.45l-.23.75Zm-6.55-5.84c.14-.04.45-.08.88-.08.94.01,1.59.4,1.59,1.29,0,.79-.6,1.31-1.56,1.31h-.91v-2.52Zm-.89,6.18h.89v-2.99h.84c.81.03,1.18.39,1.38,1.34.19.86.35,1.45.46,1.65h.92c-.14-.27-.31-.93-.53-1.89-.16-.72-.48-1.21-1.01-1.39v-.03c.73-.25,1.3-.85,1.3-1.76,0-.53-.19-1-.54-1.31-.43-.39-1.04-.56-2-.56-.61,0-1.26.05-1.71.14v6.81Zm-3.75-3.97h-2.68v-2.18h2.84v-.75h-3.73v6.9h3.88v-.75h-2.99v-2.49h2.68v-.74Zm-9.07,3.97l2.47-6.9h-.95l-1.17,3.41c-.31.9-.59,1.77-.79,2.57h-.02c-.18-.81-.44-1.65-.74-2.58l-1.07-3.4h-.96l2.25,6.9h.98Zm-7.23-6.9v6.9h.89v-6.9h-.89Zm-8.18,6.9v-2.95c0-1.15-.02-1.98-.07-2.85h.03c.35.74.81,1.53,1.29,2.29l2.19,3.5h.9v-6.9h-.84v2.89c0,1.07.02,1.91.1,2.84h-.02c-.33-.7-.73-1.42-1.24-2.23l-2.21-3.49h-.97v6.9h.84Zm-9.76-6.9v4.06c0,2.14,1.06,2.95,2.48,2.95,1.49,0,2.61-.87,2.61-2.99v-4.02h-.9v4.08c0,1.53-.66,2.2-1.68,2.2-.92,0-1.61-.65-1.61-2.2v-4.08h-.9Z" fill="#fff"></path>
        <path d="m174.41,59.59c.63-.04,1.32-.35,1.32-1.11,0-.34-.19-.61-.4-.75l-.68.14c.18.14.36.38.36.61,0,.41-.38.6-.77.68l.16.42Zm-1.46-2.61c.37.25,1.1.44,1.76.44,1.63,0,2.42-.92,2.42-1.99s-.59-1.58-1.76-2.03c-.95-.37-1.37-.69-1.37-1.33,0-.47.36-1.03,1.3-1.03.62,0,1.09.2,1.31.33l.25-.73c-.31-.17-.82-.34-1.53-.34-1.34,0-2.23.8-2.23,1.87,0,.97.7,1.56,1.82,1.96.93.36,1.3.73,1.3,1.37,0,.7-.53,1.18-1.44,1.18-.61,0-1.2-.2-1.6-.45l-.23.75Zm-3.4-3.63h-2.68v-2.18h2.84v-.75h-3.73v6.9h3.88v-.75h-2.99v-2.49h2.68v-.74Zm-10.47-2.21c.14-.04.45-.08.88-.08.94.01,1.59.4,1.59,1.29,0,.79-.6,1.31-1.56,1.31h-.91v-2.52Zm-.89,6.18h.89v-2.99h.84c.81.03,1.18.39,1.38,1.34.19.86.35,1.45.46,1.65h.92c-.14-.27-.31-.93-.53-1.89-.16-.72-.48-1.21-1.01-1.39v-.03c.73-.25,1.3-.85,1.3-1.76,0-.53-.19-1-.54-1.31-.43-.39-1.04-.56-2-.56-.61,0-1.26.05-1.71.14v6.81Zm-8.92-6.9v4.06c0,2.14,1.06,2.95,2.48,2.95,1.49,0,2.61-.87,2.61-2.99v-4.02h-.9v4.08c0,1.53-.66,2.2-1.68,2.2-.92,0-1.61-.66-1.61-2.2v-4.08h-.9Zm-4.52,6.9h.87l-.43-6.9h-1.14l-1.23,3.34c-.31.87-.55,1.63-.73,2.32h-.03c-.17-.72-.41-1.47-.7-2.32l-1.18-3.34h-1.14l-.48,6.9h.85l.18-2.96c.06-1.03.11-2.19.13-3.05h.02c.19.82.47,1.71.8,2.68l1.12,3.29h.68l1.22-3.35c.35-.95.63-1.81.87-2.62h.03c-.01.86.05,2.02.1,2.98l.17,3.03Zm-17.08-6.9v4.06c0,2.14,1.06,2.95,2.48,2.95,1.49,0,2.61-.87,2.61-2.99v-4.02h-.9v4.08c0,1.53-.66,2.2-1.68,2.2-.92,0-1.61-.66-1.61-2.2v-4.08h-.9Zm-3.64,3.28h-2.27v.72h1.4v2.06c-.2.1-.6.18-1.19.18-1.61,0-2.66-1.03-2.66-2.78s1.1-2.77,2.77-2.77c.7,0,1.16.13,1.53.3l.21-.73c-.3-.14-.92-.32-1.72-.32-2.31,0-3.73,1.5-3.74,3.56,0,1.07.37,2,.96,2.57.68.64,1.54.91,2.58.91.93,0,1.72-.24,2.12-.38v-3.32Zm-12.18-2.56c.14-.04.45-.08.88-.08.94.01,1.59.4,1.59,1.29,0,.79-.6,1.31-1.56,1.31h-.91v-2.52Zm-.89,6.18h.89v-2.99h.84c.81.03,1.18.39,1.38,1.34.19.86.35,1.45.46,1.65h.92c-.14-.27-.31-.93-.53-1.89-.16-.72-.48-1.21-1.01-1.39v-.03c.73-.25,1.3-.85,1.3-1.76,0-.53-.19-1-.54-1.31-.43-.39-1.04-.56-2-.56-.61,0-1.26.05-1.71.14v6.81Zm-6.5-8.43l-1.04,1.17h.73l.66-.71h.02l.66.71h.75l-1.07-1.17h-.69Zm-.75,5.57l.68-2c.13-.42.25-.84.35-1.25h.02c.1.4.2.81.36,1.26l.68,1.99h-2.08Zm2.26.7l.74,2.17h.95l-2.35-6.9h-1.07l-2.34,6.9h.92l.72-2.17h2.45Zm-9.63,2.17h.9v-6.14h2.11v-.76h-5.11v.76h2.1v6.14Zm-11.24,0v-2.95c0-1.15-.02-1.98-.07-2.85h.03c.35.74.81,1.53,1.29,2.29l2.19,3.5h.9v-6.9h-.84v2.89c0,1.07.02,1.91.1,2.84h-.02c-.33-.7-.73-1.42-1.24-2.23l-2.21-3.49h-.97v6.9h.84Zm-5.57-6.9v6.9h.89v-6.9h-.89Zm-8.21.75c.24-.05.58-.09,1.04-.09,1.88,0,2.8,1.03,2.79,2.66,0,1.86-1.03,2.93-2.94,2.93-.35,0-.68-.01-.9-.05v-5.45Zm-.89,6.13c.45.05.98.08,1.62.08,1.34,0,2.41-.35,3.05-.99.64-.63.99-1.56.99-2.68s-.36-1.91-.97-2.48c-.6-.56-1.52-.86-2.79-.86-.71,0-1.35.06-1.89.14v6.79Zm139.15-22.08c-.11.74-.38,1.8-.6,2.41l.57-.07c.28-.47.72-1.57.95-2.43l-.92.09Zm-1.52,0c-.11.74-.39,1.8-.6,2.41l.57-.07c.28-.47.72-1.57.95-2.43l-.92.09Zm-3.82,2.95h-2.68v-2.18h2.84v-.75h-3.73v6.9h3.88v-.75h-2.99v-2.49h2.68v-.74Zm-11.78-2.18c.24-.05.58-.09,1.04-.09,1.88,0,2.8,1.03,2.79,2.66,0,1.86-1.03,2.93-2.94,2.93-.35,0-.68-.01-.9-.05v-5.45Zm-.89,6.13c.45.05.98.08,1.62.08,1.34,0,2.41-.35,3.05-.99.64-.63.99-1.56.99-2.68s-.36-1.91-.97-2.48c-.6-.56-1.52-.86-2.79-.86-.71,0-1.35.06-1.89.14v6.79Zm-7.25-2.85l.68-2c.13-.42.25-.84.35-1.25h.02c.1.4.2.81.36,1.26l.68,1.99h-2.08Zm2.26.7l.74,2.17h.95l-2.35-6.9h-1.07l-2.34,6.9h.92l.72-2.17h2.45Zm-10.68,2.17h3.84v-.75h-2.95v-6.15h-.89v6.9Zm-7.25-2.87l.68-2c.13-.42.25-.84.35-1.25h.02c.1.4.2.81.36,1.26l.68,1.99h-2.08Zm2.26.7l.74,2.17h.95l-2.35-6.9h-1.07l-2.34,6.9h.92l.72-2.17h2.45Zm-9.54-4c.15-.04.45-.07.84-.07.98,0,1.63.44,1.63,1.35s-.66,1.47-1.73,1.47c-.3,0-.54-.02-.74-.07v-2.68Zm-.89,6.17h.89v-2.76c.21.05.45.06.72.06.87,0,1.64-.26,2.11-.76.35-.36.53-.85.53-1.47s-.23-1.12-.6-1.44c-.41-.37-1.05-.57-1.93-.57-.72,0-1.28.06-1.71.13v6.82Zm-9.29,0h3.84v-.75h-2.95v-6.15h-.89v6.9Zm-4.73-6.9v6.9h.89v-6.9h-.89Zm-4.53,6.9h.87l-.43-6.9h-1.14l-1.23,3.34c-.31.87-.55,1.63-.73,2.32h-.03c-.17-.72-.41-1.47-.7-2.32l-1.18-3.34h-1.14l-.48,6.9h.85l.18-2.96c.06-1.03.11-2.19.13-3.05h.02c.19.82.47,1.71.8,2.68l1.12,3.29h.68l1.22-3.35c.35-.95.63-1.81.87-2.62h.03c-.01.86.05,2.02.1,2.98l.17,3.03Zm-9.74-3.97h-2.68v-2.18h2.84v-.75h-3.73v6.9h3.88v-.75h-2.99v-2.49h2.68v-.74Zm-9.49,0h-2.68v-2.18h2.84v-.75h-3.73v6.9h3.88v-.75h-2.99v-2.49h2.68v-.74Zm-7.22.35h-2.27v.72h1.4v2.06c-.2.1-.6.18-1.19.18-1.61,0-2.66-1.03-2.66-2.78s1.1-2.77,2.77-2.77c.7,0,1.16.13,1.53.3l.21-.73c-.3-.14-.92-.32-1.72-.32-2.31,0-3.73,1.5-3.74,3.56,0,1.07.37,2,.96,2.57.68.64,1.54.91,2.58.91.93,0,1.72-.24,2.12-.38v-3.32Zm-12.18-2.56c.14-.04.45-.08.88-.08.94.01,1.59.4,1.59,1.29,0,.79-.6,1.31-1.56,1.31h-.91v-2.52Zm-.89,6.18h.89v-2.99h.84c.81.03,1.18.39,1.38,1.34.19.86.35,1.45.46,1.65h.92c-.14-.27-.31-.93-.53-1.89-.16-.72-.48-1.21-1.01-1.39v-.03c.73-.25,1.3-.85,1.3-1.76,0-.53-.19-1-.54-1.31-.43-.39-1.04-.56-2-.56-.61,0-1.26.05-1.71.14v6.81Zm-6.58-6.28c1.48,0,2.2,1.43,2.2,2.8,0,1.57-.8,2.87-2.21,2.87s-2.2-1.32-2.2-2.79.74-2.88,2.21-2.88Zm.04-.73c-1.84,0-3.2,1.43-3.2,3.62s1.28,3.5,3.1,3.5,3.2-1.26,3.2-3.63c0-2.05-1.22-3.49-3.1-3.49Zm-6.54,3.04h-2.68v-2.18h2.84v-.75h-3.73v6.9h3.88v-.75h-2.99v-2.49h2.68v-.74Zm-7.22.35h-2.27v.72h1.4v2.06c-.2.1-.6.18-1.19.18-1.61,0-2.66-1.03-2.66-2.78s1.1-2.77,2.77-2.77c.7,0,1.16.13,1.53.3l.21-.73c-.3-.14-.92-.32-1.72-.32-2.31,0-3.73,1.5-3.74,3.56,0,1.07.37,2,.96,2.57.68.64,1.54.91,2.58.91.93,0,1.72-.24,2.12-.38v-3.32Zm195.7-15.53h-2.68v-2.18h2.84v-.75h-3.73v6.9h3.88v-.75h-2.99v-2.49h2.68v-.74Zm-8.3-2.93v6.9h.89v-6.9h-.89Zm-3.65,3.28h-2.27v.72h1.4v2.06c-.2.1-.6.18-1.19.18-1.61,0-2.66-1.03-2.66-2.78s1.1-2.77,2.77-2.77c.7,0,1.16.13,1.53.3l.21-.73c-.3-.14-.92-.32-1.72-.32-2.31,0-3.73,1.5-3.74,3.56,0,1.07.37,2,.96,2.57.68.64,1.54.91,2.58.91.93,0,1.72-.24,2.12-.38v-3.32Zm-11.84-2.66c1.48,0,2.2,1.43,2.2,2.8,0,1.57-.8,2.87-2.21,2.87s-2.2-1.32-2.2-2.79.74-2.88,2.21-2.88Zm.04-.73c-1.84,0-3.2,1.43-3.2,3.62s1.28,3.5,3.1,3.5,3.2-1.26,3.2-3.63c0-2.05-1.22-3.49-3.1-3.49Zm-9.51,7.01h3.84v-.75h-2.95v-6.15h-.89v6.9Zm-6.58-6.28c1.48,0,2.2,1.43,2.2,2.8,0,1.57-.8,2.87-2.21,2.87s-2.2-1.32-2.2-2.79.74-2.88,2.21-2.88Zm.04-.73c-1.84,0-3.2,1.43-3.2,3.62s1.28,3.5,3.1,3.5,3.2-1.26,3.2-3.63c0-2.05-1.22-3.49-3.1-3.49Zm-10.98,7.01v-2.95c0-1.15-.02-1.98-.07-2.85h.03c.35.74.81,1.53,1.29,2.29l2.19,3.5h.9v-6.9h-.84v2.89c0,1.07.02,1.91.1,2.84h-.02c-.33-.7-.73-1.42-1.24-2.23l-2.21-3.49h-.97v6.9h.84Zm-9.8-6.9v6.9h.89v-3.23h3.34v3.23h.9v-6.9h-.9v2.89h-3.34v-2.89h-.89Zm-3.75,2.93h-2.68v-2.18h2.84v-.75h-3.73v6.9h3.88v-.75h-2.99v-2.49h2.68v-.74Zm-9.64,3.97h.9v-6.14h2.11v-.76h-5.11v.76h2.1v6.14Zm-7.79-6.9v6.9h.89v-6.9h-.89Zm-6.22,9.17c.63-.04,1.32-.35,1.32-1.11,0-.34-.19-.61-.4-.75l-.68.14c.18.14.36.38.36.61,0,.41-.38.6-.77.68l.16.42Zm-1.46-2.61c.37.25,1.1.44,1.76.44,1.63,0,2.42-.92,2.42-1.99s-.59-1.58-1.76-2.03c-.95-.37-1.37-.69-1.37-1.33,0-.47.36-1.03,1.3-1.03.62,0,1.09.2,1.31.33l.25-.73c-.31-.17-.82-.34-1.53-.34-1.34,0-2.23.8-2.23,1.87,0,.97.7,1.56,1.82,1.96.93.36,1.3.73,1.3,1.37,0,.7-.53,1.18-1.44,1.18-.61,0-1.2-.2-1.6-.45l-.22.75Zm-5.57-3.63h-2.68v-2.18h2.84v-.75h-3.73v6.9h3.88v-.75h-2.99v-2.49h2.68v-.74Zm-8.73,3.97v-6.14h2.11v-.76h-5.11v.76h2.1v6.14h.18l-.47.86c.48.05.8.16.8.44,0,.21-.19.31-.43.31s-.41-.05-.56-.13l-.15.46c.18.1.47.17.73.17.53,0,1.05-.24,1.05-.83,0-.42-.33-.7-.72-.77l.31-.51h.16Zm-10.39,0v-2.95c0-1.15-.02-1.98-.07-2.85h.03c.35.74.81,1.53,1.29,2.29l2.19,3.5h.9v-6.9h-.84v2.89c0,1.07.02,1.91.1,2.84h-.02c-.33-.7-.73-1.42-1.24-2.23l-2.21-3.49h-.97v6.9h.84Zm-5.57-6.9v6.9h.89v-6.9h-.89Zm-4.73,0v6.9h.89v-6.9h-.89Zm-6.06,6.9h.9v-6.14h2.11v-.76h-5.11v.76h2.1v6.14Zm-7.53,2.27c.63-.04,1.32-.35,1.32-1.11,0-.34-.19-.61-.4-.75l-.68.14c.18.14.36.38.36.61,0,.41-.38.6-.77.68l.16.42Zm-1.46-2.61c.37.25,1.1.44,1.76.44,1.63,0,2.42-.92,2.42-1.99s-.59-1.58-1.76-2.03c-.95-.37-1.37-.69-1.37-1.33,0-.47.36-1.03,1.3-1.03.62,0,1.09.2,1.31.33l.25-.73c-.31-.17-.82-.34-1.53-.34-1.34,0-2.23.8-2.23,1.87,0,.97.7,1.56,1.82,1.96.93.36,1.3.73,1.3,1.37,0,.7-.53,1.18-1.44,1.18-.61,0-1.2-.2-1.6-.45l-.23.75Zm-9.73-3.63h-2.68v-2.18h2.84v-.75h-3.73v6.9h3.88v-.75h-2.99v-2.49h2.68v-.74Zm-8.3-2.93v6.9h.89v-6.9h-.89Zm-3.59,5.97c-.36.17-.91.29-1.45.29-1.68,0-2.65-1.09-2.65-2.77,0-1.81,1.07-2.85,2.69-2.85.57,0,1.05.12,1.39.29l.22-.73c-.24-.12-.78-.31-1.64-.31-2.14,0-3.6,1.46-3.6,3.62s1.46,3.49,3.41,3.49c.84,0,1.49-.16,1.82-.33l-.18-.71Zm-11.73-1.93l.68-2c.13-.42.25-.84.35-1.25h.02c.1.4.2.81.36,1.26l.68,1.99h-2.08Zm2.26.7l.74,2.17h.95l-2.35-6.9h-1.07l-2.34,6.9h.92l.72-2.17h2.45Zm-7.99,2.17h.87l-.43-6.9h-1.14l-1.23,3.34c-.31.87-.55,1.63-.73,2.32h-.03c-.17-.72-.41-1.47-.7-2.32l-1.18-3.34h-1.14l-.48,6.9h.85l.18-2.96c.06-1.03.11-2.19.13-3.05h.02c.19.82.47,1.71.8,2.68l1.12,3.29h.68l1.22-3.35c.35-.95.63-1.81.87-2.62h.03c-.01.86.05,2.02.1,2.98l.17,3.03Zm-12.89-6.18c.14-.04.45-.08.88-.08.94.01,1.59.4,1.59,1.29,0,.79-.6,1.31-1.56,1.31h-.91v-2.52Zm-.89,6.18h.89v-2.99h.84c.81.03,1.18.39,1.38,1.34.19.86.35,1.45.46,1.65h.92c-.14-.27-.31-.93-.53-1.89-.16-.72-.48-1.21-1.01-1.39v-.03c.73-.25,1.3-.85,1.3-1.76,0-.53-.19-1-.54-1.31-.43-.39-1.04-.56-2-.56-.61,0-1.26.05-1.71.14v6.81Zm-7.25-2.87l.68-2c.13-.42.25-.84.35-1.25h.02c.1.4.2.81.36,1.26l.68,1.99h-2.08Zm2.26.7l.74,2.17h.95l-2.35-6.9h-1.07l-2.34,6.9h.92l.72-2.17h2.45Zm-10.03,2.17h.89v-3.12h2.61v-.74h-2.61v-2.29h2.83v-.75h-3.72v6.9Zm61.79,1.2c.29-.48.74-1.62.97-2.49l-1,.1c-.11.75-.39,1.84-.61,2.45l.64-.06Zm116.55-15.18c.29-.48.74-1.62.97-2.49l-1,.1c-.11.75-.39,1.84-.61,2.45l.64-.06Zm-7.4-9.56c.02.6.39,1.09,1.26,1.09s1.27-.48,1.28-1.09h-.52c-.05.27-.25.5-.75.5s-.68-.27-.74-.5h-.53Zm.23,5.5l.68-2c.13-.42.25-.84.35-1.25h.02c.1.4.2.81.36,1.26l.68,1.99h-2.08Zm2.26.7l.74,2.17h.95l-2.35-6.9h-1.07l-2.34,6.9h.92l.72-2.17h2.45Zm-11.74,2.17v-2.95c0-1.15-.02-1.98-.07-2.85h.03c.35.74.81,1.53,1.29,2.29l2.19,3.5h.9v-6.9h-.84v2.89c0,1.07.02,1.91.1,2.84h-.02c-.33-.7-.73-1.42-1.24-2.23l-2.21-3.49h-.97v6.9h.84Zm-5.57-6.9v6.9h.89v-6.9h-.89Zm-3.59,5.97c-.36.17-.91.29-1.45.29-1.68,0-2.65-1.09-2.65-2.77,0-1.81,1.07-2.85,2.69-2.85.57,0,1.05.12,1.39.29l.21-.73c-.24-.12-.78-.31-1.64-.31-2.14,0-3.6,1.46-3.6,3.62s1.46,3.49,3.41,3.49c.84,0,1.49-.16,1.82-.33l-.18-.71Zm-9.37-5.97v6.9h.89v-6.9h-.89Zm-8.21.75c.24-.05.58-.09,1.04-.09,1.88,0,2.8,1.03,2.79,2.66,0,1.86-1.03,2.93-2.94,2.93-.35,0-.68-.01-.9-.05v-5.45Zm-.89,6.13c.45.05.98.08,1.62.08,1.34,0,2.41-.35,3.05-.99.64-.63.99-1.56.99-2.68s-.36-1.91-.97-2.48c-.6-.56-1.51-.86-2.79-.86-.71,0-1.35.06-1.89.14v6.79Zm-3.75-3.95h-2.68v-2.18h2.84v-.75h-3.73v6.9h3.88v-.75h-2.99v-2.49h2.68v-.74Zm-8.1,3.97h.87l-.43-6.9h-1.14l-1.23,3.34c-.31.87-.55,1.63-.73,2.32h-.03c-.17-.72-.41-1.47-.7-2.32l-1.18-3.34h-1.14l-.48,6.9h.85l.18-2.96c.06-1.03.11-2.19.13-3.05h.02c.19.82.47,1.71.8,2.68l1.12,3.29h.68l1.22-3.35c.35-.95.63-1.81.87-2.62h.03c-.01.86.05,2.02.1,2.98l.17,3.03Zm-11.91-3.97h-2.68v-2.18h2.84v-.75h-3.73v6.9h3.88v-.75h-2.99v-2.49h2.68v-.74Zm-11.78-2.18c.24-.05.58-.09,1.04-.09,1.88,0,2.8,1.03,2.79,2.66,0,1.86-1.03,2.93-2.94,2.93-.35,0-.68-.01-.9-.05v-5.45Zm-.89,6.13c.45.05.98.08,1.62.08,1.34,0,2.41-.35,3.05-.99.64-.63.99-1.56.99-2.68s-.36-1.91-.97-2.48c-.6-.56-1.51-.86-2.79-.86-.71,0-1.35.06-1.89.14v6.79Zm-9.42-2.85l.68-2c.13-.42.25-.84.35-1.25h.02c.1.4.2.81.36,1.26l.68,1.99h-2.08Zm2.26.7l.74,2.17h.95l-2.35-6.9h-1.07l-2.34,6.9h.92l.72-2.17h2.45Zm-7.31-1.8h-2.68v-2.18h2.84v-.75h-3.73v6.9h3.88v-.75h-2.99v-2.49h2.68v-.74Zm-9.64,3.97h.9v-6.14h2.11v-.76h-5.11v.76h2.1v6.14Zm-7.77-2.87l.68-2c.13-.42.25-.84.35-1.25h.02c.1.4.2.81.36,1.26l.68,1.99h-2.08Zm2.26.7l.74,2.17h.95l-2.35-6.9h-1.07l-2.34,6.9h.92l.72-2.17h2.45Zm-8.86,2.17h.9v-6.14h2.11v-.76h-5.11v.76h2.1v6.14Zm-6.04-6.9v6.9h.89v-6.9h-.89Zm-7.68,6.56c.37.25,1.1.44,1.76.44,1.63,0,2.42-.92,2.42-1.99s-.59-1.58-1.76-2.03c-.95-.37-1.37-.69-1.37-1.33,0-.47.36-1.03,1.3-1.03.62,0,1.09.2,1.31.33l.25-.73c-.31-.17-.82-.34-1.53-.34-1.34,0-2.23.8-2.23,1.87,0,.97.7,1.56,1.82,1.95.93.36,1.3.73,1.3,1.37,0,.7-.53,1.18-1.44,1.18-.61,0-1.2-.2-1.6-.45l-.23.75Zm-6.55-5.84c.14-.04.45-.08.88-.08.94.01,1.59.4,1.59,1.29,0,.79-.6,1.31-1.56,1.31h-.91v-2.52Zm-.89,6.18h.89v-2.99h.84c.81.03,1.18.39,1.38,1.34.19.86.35,1.45.46,1.65h.92c-.14-.27-.31-.93-.53-1.89-.16-.72-.48-1.21-1.01-1.39v-.03c.73-.25,1.3-.85,1.3-1.76,0-.53-.19-1-.54-1.31-.43-.39-1.04-.56-2-.56-.61,0-1.26.05-1.71.14v6.81Zm-3.75-3.97h-2.68v-2.18h2.84v-.75h-3.73v6.9h3.88v-.75h-2.99v-2.49h2.68v-.74Zm-9.07,3.97l2.47-6.9h-.95l-1.17,3.41c-.31.9-.59,1.77-.79,2.57h-.02c-.18-.81-.44-1.65-.74-2.58l-1.07-3.4h-.96l2.25,6.9h.98Zm-7.23-6.9v6.9h.89v-6.9h-.89Zm-8.18,6.9v-2.95c0-1.15-.02-1.98-.07-2.85h.03c.35.74.81,1.53,1.29,2.29l2.19,3.5h.9v-6.9h-.84v2.89c0,1.07.02,1.91.1,2.84h-.02c-.33-.7-.73-1.42-1.24-2.23l-2.21-3.49h-.97v6.9h.84Zm-9.76-6.9v4.06c0,2.14,1.06,2.95,2.48,2.95,1.49,0,2.61-.87,2.61-2.99v-4.02h-.9v4.08c0,1.53-.66,2.2-1.68,2.2-.92,0-1.61-.65-1.61-2.2v-4.08h-.9Z" fill="none" stroke="#fff" stroke-miterlimit="2.61" stroke-width=".22"></path>
        <path d="m72.76,41.25c-.09.6-.31,1.48-.49,1.97l.47-.06c.23-.39.59-1.29.78-1.99l-.76.08Zm-1.24,0c-.09.61-.32,1.48-.49,1.97l.47-.06c.23-.39.59-1.29.78-1.99l-.76.07Z" fill="#fff"></path>
        <path d="m72.76,41.25c-.09.6-.31,1.48-.49,1.97l.47-.06c.23-.39.59-1.29.78-1.99l-.76.08Zm-1.24,0c-.09.61-.32,1.48-.49,1.97l.47-.06c.23-.39.59-1.29.78-1.99l-.76.07Z" fill="none" stroke="#fff" stroke-miterlimit="2.61" stroke-width=".5"></path>
      </g>
    </g>
  </g>
</svg>
